/* XPM */
static const char *crs_edit_point_move_xpm[] = {
/* columns rows colors chars-per-pixel */
"32 32 4 1",
". c Black",
"X c #FFFFFF",
"o c #000080",
"  c None",
/* pixels */
"              .X.               ",
"              .X.               ",
"              .X.               ",
"              .X.               ",
"              .X.               ",
"              .X.               ",
"              . .               ",
"              . .               ",
"              . .               ",
"         X    . .    X          ",
"          X   . .   X           ",
"           X  . .  X            ",
"            X . . X             ",
"             X. .X              ",
"..............X.X.............. ",
"XXXXXX        . .        XXXXXX ",
"..............X.X.............. ",
"             X. .X              ",
"            X . . X    oooo     ",
"           X  . .  X oooooooo   ",
"          X   . .   Xooooooooo  ",
"         X    . .  ooXoXXXXoooo ",
"              . .  oooXooooXooo ",
"              . . oooXooooooXooo",
"              .X. oooXooXXooXooo",
"              .X. oooXooXXooXooo",
"              .X. oooXooooooXooo",
"              .X.  oooXooooXooo ",
"              .X.  ooooXXXXoooo ",
"              .X.   oooooooooo  ",
"              .X.    oooooooo   ",
"                       oooo     "
};
