/* XPM */
static char *crs_magnifier_xpm[] = {
/* columns rows colors chars-per-pixel */
"32 32 3 1",
"X c Black",
". c #FFFFFF",
"  c None",
/* pixels */
"                                ",
"                                ",
"                                ",
"        ....                    ",
"      ..XXXX..                  ",
"     .XX    XX.                 ",
"    .X        X.                ",
"    .X   XX   X.                ",
"   .X    XX    X.               ",
"   .X  XXXXXX  X.               ",
"   .X  XXXXXX  X.               ",
"   .X    XX    X.               ",
"    .X   XX   X.                ",
"    .X        X.                ",
"     .XX    XXX.                ",
"      ..XXXX.XXX.               ",
"        .... .XXX.              ",
"              .XXX.             ",
"               .XXX.            ",
"                .XXX.           ",
"                 .XX.           ",
"                  ..            ",
"                                ",
"                                ",
"                                ",
"                                ",
"                                ",
"                                ",
"                                ",
"                                ",
"                                ",
"                                "
};
