/* XPM */
static char *nb_active_htmlextrainfo_xpm[] = {
"22 22 158 2",
"  	c None",
". 	c #FFFFFF",
"+ 	c #FFFFFE",
"@ 	c #55637F",
"# 	c #C0D0E0",
"$ 	c #B0BBC5",
"% 	c #6090E0",
"& 	c #102840",
"* 	c #A0B0D0",
"= 	c #F0F8FF",
"- 	c #90A8C0",
"; 	c #D0D8E0",
"> 	c #475571",
", 	c #7098F0",
"' 	c #8098B0",
") 	c #B0C8E0",
"! 	c #6E7D8A",
"~ 	c #609090",
"{ 	c #95A2BB",
"] 	c #B0F0C0",
"^ 	c #B0C0D0",
"/ 	c #8090B0",
"( 	c #8E9CB7",
"_ 	c #96A5B4",
": 	c #7090C0",
"< 	c #808EA9",
"[ 	c #6E88A1",
"} 	c #F0F0FF",
"| 	c #8C96A8",
"1 	c #30A050",
"2 	c #BFC9CF",
"3 	c #5088E0",
"4 	c #408090",
"5 	c #CBD1D7",
"6 	c #209840",
"7 	c #4078D0",
"8 	c #A4B4C3",
"9 	c #60A0B0",
"0 	c #8EA3B7",
"a 	c #6098FF",
"b 	c #D2D6DA",
"c 	c #A0E090",
"d 	c #40B050",
"e 	c #608080",
"f 	c #979FAF",
"g 	c #ABB5BB",
"h 	c #607890",
"i 	c #AEB5BA",
"j 	c #96ACC2",
"k 	c #20A060",
"l 	c #60C830",
"m 	c #80B890",
"n 	c #5080D0",
"o 	c #406850",
"p 	c #6C778E",
"q 	c #3090A0",
"r 	c #209080",
"s 	c #A8B4CB",
"t 	c #90E070",
"u 	c #A1ABB4",
"v 	c #70C840",
"w 	c #60B040",
"x 	c #80D880",
"y 	c #6098F0",
"z 	c #90D0A0",
"A 	c #9DA8B3",
"B 	c #90E080",
"C 	c #90D8A0",
"D 	c #798998",
"E 	c #6088D0",
"F 	c #A0E8B0",
"G 	c #306870",
"H 	c #507860",
"I 	c #909CB3",
"J 	c #90B8B0",
"K 	c #D0F0D0",
"L 	c #90D870",
"M 	c #D0D8F0",
"N 	c #869DB3",
"O 	c #8F9AA4",
"P 	c #A0A8C0",
"Q 	c #54677A",
"R 	c #F9F9FA",
"S 	c #208830",
"T 	c #99A4AE",
"U 	c #D2D8DC",
"V 	c #7098E0",
"W 	c #D0F8F0",
"X 	c #A3AEC3",
"Y 	c #CAD1D4",
"Z 	c #9AA5AF",
"` 	c #2B4063",
" .	c #969DB3",
"..	c #C0D0F0",
"+.	c #304860",
"@.	c #506880",
"#.	c #7080A0",
"$.	c #70A070",
"%.	c #309850",
"&.	c #A5B5C4",
"*.	c #B2BBC0",
"=.	c #70A0B0",
"-.	c #509860",
";.	c #B6BDC4",
">.	c #90D0B0",
",.	c #20A040",
"'.	c #A5B0C5",
").	c #80A0A0",
"!.	c #C0C8CD",
"~.	c #8098A0",
"{.	c #507060",
"].	c #4A5968",
"^.	c #70A0FF",
"/.	c #808E9B",
"(.	c #6098D0",
"_.	c #307840",
":.	c #4A5977",
"<.	c #102850",
"[.	c #D0E0F0",
"}.	c #D0F8E0",
"|.	c #40B060",
"1.	c #F9F9F9",
"2.	c #D5DBDD",
"3.	c #7090E0",
"4.	c #738595",
"5.	c #406870",
"6.	c #969DB4",
"7.	c #40A090",
"8.	c #A0E080",
"9.	c #408880",
"0.	c #40A040",
"a.	c #609880",
"b.	c #4098D0",
"c.	c #7090A0",
"d.	c #60C840",
"e.	c #70C050",
"f.	c #506890",
"g.	c #96A9BD",
"h.	c #C4CAD0",
"i.	c #6088E0",
"j.	c #409860",
"k.	c #96A3BD",
"l.	c #BBC0CA",
"m.	c #B0B8D0",
"n.	c #475A6D",
"o.	c #A0B0C0",
"p.	c #80D860",
"q.	c #2C3B59",
"r.	c #E0E8FF",
"s.	c #475C71",
"t.	c #B9C4CE",
"u.	c #CFD2D4",
"v.	c #60B850",
"w.	c #6090A0",
"x.	c #70A880",
"y.	c #405860",
"z.	c #AFBCD5",
"A.	c #6D7E8D",
"                                            ",
"                                            ",
"                                            ",
"            5 $ _ 6.'.h.                    ",
"          $ J >.C B e.~ Z                   ",
"        $ m x ] }.x.L w 4 O                 ",
"      U ).l t ] K W F a.b.9.i               ",
"      $ w.v.p.c 8.z 9 y 3 %.D               ",
"      _ 3.-.d.v $.=.(.% q ,.:.              ",
"       .^.e 0.d ~ V % 3 k 6 ].              ",
"      &., , {.j.|.7.i.n o _.A.              ",
"      b : a % H 1 1 r 7 5.y.;.              ",
"        T E : ~.c.h S G f.< g.k.t.          ",
"        !.P ; = } ^ #.@.- ; = } ^ <         ",
"        8 [./.q.+.' * - m.j n.Q A o.        ",
"        N . ` u.z.. = r.M ..4.2.0 # p       ",
"        X # I [ { <.& & & s.[ { s ' u       ",
"        Y ( * # ) / @ f ( * # ) / @         ",
"          2 | @ > ! g   2 | @ > ! *.        ",
"                                            ",
"                                            ",
"                                            "};
