/* XPM */
static const char *saga_icon_32_xpm[] = {
/* columns rows colors chars-per-pixel */
"32 32 3 1",
". c #00FFFF",
"X c #0000FF",
"  c None",
/* pixels */
"            ..........      .   ",
"          XXXXXXXXXX....  X .   ",
"        XXXXXXXXXXXXXX....X ..  ",
"      XXXXXXXXXXXXXXXXXX..XX..  ",
"     XXXXXX    .   XXXXXX.XX..  ",
"    XXXX     X...    XXXXXXX... ",
"   XXX.     XXX...     XXXXXX.. ",
"  XXX.     XXXXX...   ..XXXXX.. ",
"  XX...   X.XXXXX...XXXXXXXXX...",
" XXXX... X.  XXXXX...    XXXXX..",
" XXXXX..X.    XXXXX...      XX  ",
"XXXXXXXX..     XXXXX...         ",
"XXXXXXXX...     XXXXX...        ",
"XX..XXXXX...     XXXXX...       ",
"XX.. XXXXX...     XXXXX...      ",
"XX..  XXXXX........XXXXX........",
"XX..   XXXXXXXXXXXXXXXXXXXXXXX..",
"XX..    XXXXXXXXXXXXXXXXXXXXXX..",
"XX...    XXXXXXXXXXXXXXXXXXXXX..",
"XXX..     XXXXX...         XXX..",
"XXX...     XXXXX...        XXX. ",
" XXX..      XXXXX...      XXX.. ",
" XXX...      XXXXX...     XXX.  ",
"  XXX...      XXXXX...   XXX..  ",
"  XXXX...      XXXXX... XXXX.   ",
"   XXXX....     XXXXX..XXXX.    ",
"    XXXXX....    XXXXXXXXX.     ",
"     XXXXXX.......XXXXXXX       ",
"       XXXXXXXXXXXXXXXX         ",
"         XXXXXXXXXXXX           ",
"           XXXXXXXX             ",
"                                "
};
