/* XPM */
static char *tb_edit_shape_select_xpm[] = {
/* columns rows colors chars-per-pixel */
"18 16 5 1",
"X c Black",
"O c #FFFFFF",
"o c #848284",
". c #000084",
"  c None",
/* pixels */
"  .   XXXXX       ",
"  o...OXoXOX      ",
"  o....OXOOOX     ",
"   X......OOOX    ",
"  XO........OOX   ",
" XOOO.........OX  ",
"XOOOO.....OOOOOOX ",
"oXOOO......OOOOXo ",
" oXOOO..O...OOXo  ",
"  oXOO..OO...Xo   ",
"   oXOO.OOO...    ",
"    oXO.OOOX...   ",
"     oXOOOXoo...  ",
"      oXOXo  o..  ",
"       oXo    oo  ",
"        o         "
};
