/* XPM */
static char *tb_histogram_cumulative_xpm[] = {
/* columns rows colors chars-per-pixel */
"16 16 7 1",
". c Black",
"+ c #000084",
"@ c #00FFFF",
"X c #007BFF",
"O c #0000FF",
"  c None",
"o c #00C6FF",
/* pixels */
"      ....      ",
"      .XX.      ",
"      .XX....   ",
"      .XX.oo.   ",
"   ....XX.oo.   ",
"   .OO.XX.oo.   ",
"....OO.XX.oo.   ",
".++.OO.XX.oo.   ",
".++.OO.XX.oo....",
".++.OO.XX.oo.@@.",
".++.OO.XX.oo.@@.",
".++.OO.XX.oo.@@.",
".++.OO.XX.oo.@@.",
".++.OO.XX.oo.@@.",
".++.OO.XX.oo.@@.",
"................"
};
