/* XPM */
static char *tb_info_xpm[] = {
/* columns rows colors chars-per-pixel */
"16 16 3 1",
"X c #FFFFFF",
". c #000080",
"  c None",
/* pixels */
"                ",
"      ....      ",
"    ........    ",
"   ....XX....   ",
"  .....XX.....  ",
"  ............  ",
" .....XXX...... ",
" ......XX...... ",
" ......XX...... ",
" ......XX...... ",
"  .....XX.....  ",
"  ....XXXX....  ",
"   ..........   ",
"    ........    ",
"      ....      ",
"                "
};
