/* XPM */
static const char *tb_map_mode_pan_xpm[] = {
/* columns rows colors chars-per-pixel */
"18 16 3 1",
". c Black",
"X c #FFFFFF",
"  c None",
/* pixels */
"       ..         ",
"   .. .XX...      ",
"  .XX..XX.XX.     ",
"  .XX..XX.XX. .   ",
"   .XX.XX.XX..X.  ",
"   .XX.XX.XX.XX.  ",
" .. .XXXXXXX.XX.  ",
".XX..XXXXXXXXXX.  ",
".XXX.XXXXXXXXX.   ",
" .XXXXXXXXXXXX.   ",
"  .XXXXXXXXXXX.   ",
"  .XXXXXXXXXX.    ",
"   .XXXXXXXXX.    ",
"    .XXXXXXX.     ",
"     .XXXXXX.     ",
"                  "
};
