/* XPM */
static const char *tb_map_zoom_active_xpm[] = {
/* columns rows colors chars-per-pixel */
"18 16 5 1",
"o c Black",
"O c #FFFFFF",
". c #000084",
"X c #00FFFF",
"  c None",
/* pixels */
"      ...         ",
"      .X.         ",
"      .X.         ",
"      .X.  ooooooo",
"    ...X...     o ",
"   o ..X..     o  ",
"  o   ...     oooo",
" o     .     oOOo ",
"o           oOOo  ",
"ooooooooooooOOoooo",
" oOOOOOOOOOOOo  o ",
"oOOOOOOOOOOOo  o  ",
"oooooooooooo  o   ",
" o           o    ",
"o           o     ",
"oooooooooooo      "
};
