/* XPM */
static char *tb_map_mode_distance_xpm[] = {
/* columns rows colors chars-per-pixel */
"16 16 3 1",
". c Black",
"X c #FFFFFF",
"  c None",
/* pixels */
"                ",
"      ...       ",
"     .   .      ",
"         .      ",
"        .       ",
"  .    .    .   ",
" ..    .    ..  ",
"......   ...... ",
" ..    .    ..  ",
"  .         .   ",
"                ",
"............... ",
".X.X.X.X.X.X.X. ",
".XXXXXXXXXXXXX. ",
"............... ",
"                "
};
