/* XPM */
static const char *tb_map3d_exaggerate_less_xpm[] = {
/* columns rows colors chars-per-pixel */
"16 16 3 1",
"o c Black",
"X c #848284",
"  c None",
/* pixels */
"                ",
"       XX       ",
"      Xo X      ",
"     X o  XX    ",
"    X  o    X   ",
"   X   o    oX  ",
"  X    o    oX  ",
"XXo    o    o X ",
"  o    o    o  X",
"  o    o    o   ",
"  o    o    o   ",
"  o   ooo   o   ",
" ooo   o   ooo  ",
"  o  XXXXXX o   ",
"XXXXX      XXX  ",
"              XX"
};
