/* XPM */
static char *tb_map3d_central_more_xpm[] = {
/* columns rows colors chars-per-pixel */
"18 16 2 1",
". c Black",
"  c None",
/* pixels */
"        .         ",
"       ...        ",
"      .....       ",
"        .         ",
"        .         ",
"   .    .    .    ",
"  ..         ..   ",
" ......   ......  ",
"  ..         ..   ",
"   .    .    .    ",
"        .         ",
"        .         ",
"      .....       ",
"       ...        ",
"        .         ",
"                  "
};
