/* XPM */
static char *tb_map_zoom_full_xpm[] = {
/* columns rows colors chars-per-pixel */
"18 16 5 1",
"o c Black",
"O c #FFFFFF",
". c #000084",
"X c #00FFFF",
"  c None",
/* pixels */
"      ...         ",
"      .X.         ",
"      .X.         ",
"      .X.  ooooooo",
"    ...X...OOOOOo ",
"   oO..X..OOOOOo  ",
"  oOOO...OOOOOoooo",
" oOOOOO.OOOOOoOOo ",
"oOOOOOOOOOOOoOOo  ",
"ooooooooooooOOoooo",
" oOOOOOOOOOOOoOOo ",
"oOOOOOOOOOOOoOOo  ",
"ooooooooooooOOo   ",
" oOOOOOOOOOOOo    ",
"oOOOOOOOOOOOo     ",
"oooooooooooo      "
};
