/* XPM */
static char *tb_map3d_shift_y_less_xpm[] = {
/* columns rows colors chars-per-pixel */
"16 16 3 1",
". c #000080",
"X c #848484",
"  c None",
/* pixels */
"      ....      ",
"      ....X     ",
"      ....X     ",
"      ....X     ",
"      ....X     ",
"      ....X     ",
"      ....X     ",
"      ....X     ",
"      ....X     ",
"  ............  ",
"   ..........XX ",
"    ........XX  ",
"     ......XX   ",
"      ....XX    ",
"       ..XX     ",
"        XX      "
};
