/* XPM */
static char *tb_open_xpm[] = {
/* columns rows colors chars-per-pixel */
"16 16 4 1",
"X c #00C0FF",
"o c #003FFF",
". c #000084",
"  c None",
/* pixels */
"         ...    ",
"        .   . . ",
"             .. ",
" ...        ... ",
"..X........     ",
".XXXXXXXXX.     ",
".XXXXXXXXX.     ",
".XXX........... ",
".XXX.ooooooooo. ",
".XX.ooooooooo.  ",
".X.ooooooooo.   ",
"..ooooooooo.    ",
"...........     ",
"                ",
"                ",
"                "
};
