/* XPM */
static const char *tb_table_col_add_xpm[] = {
/* columns rows colors chars-per-pixel */
"16 16 5 1",
". c Black",
"O c #FFFFFF",
"o c #000084",
"X c #00FFFF",
"  c None",
/* pixels */
"          .XXX. ",
"          .XXX. ",
"          .XXX. ",
"          .XXX. ",
"          ..... ",
"            o   ",
"            o   ",
"          ooooo ",
"           ooo  ",
".........   o   ",
".OOO.OOO.       ",
".OOO.OOO.       ",
".OOO.OOO.       ",
".OOO.OOO.       ",
".OOO.OOO.       ",
".OOO.OOO.       "
};
