/* XPM */
static char *tb_table_row_add_xpm[] = {
/* columns rows colors chars-per-pixel */
"16 16 5 1",
"  c Black",
"X c #FFFFFF",
"o c #000084",
"O c #00FFFF",
". c None",
/* pixels */
"       .........",
"XXXXXX .........",
"XXXXXX .........",
"XXXXXX .........",
"       .........",
"XXXXXX .........",
"XXXXXX .........",
"XXXXXX .........",
"       .........",
"................",
"........o..     ",
".......oo.. OOOO",
"......ooooo OOOO",
".......oo.. OOOO",
"........o..     ",
"................"
};
