/* XPM */
static char *tb_table_row_del_xpm[] = {
/* columns rows colors chars-per-pixel */
"16 16 5 1",
"  c Black",
"X c #FFFFFF",
". c #C6C6C6",
"O c #00FFFF",
"o c #0000FF",
/* pixels */
"       .........",
"XXXXXX .........",
"XXoooX .......o.",
"XXoooo .....oo..",
"   oooo....oo...",
".....ooo..oo    ",
"......ooooo OOOO",
".......ooo. OOOO",
"......ooooo OOOO",
".....ooo..oo    ",
"    ooo....oo...",
"XXXooo .....o...",
"XXoooo ......o..",
"XXoooX .........",
"   o   .......o.",
"................"
};
