/* XPM */
static char *tb_wksp_xpm[] = {
/* columns rows colors chars-per-pixel */
"16 16 5 1",
". c Black",
"X c #FFFFFF",
"o c #848484",
"O c #0000FF",
"  c None",
/* pixels */
"                ",
"............... ",
".XXXXXXXXXXXXX.o",
".XOXXXXXXXXXXX.o",
".XooOXoooooXXX.o",
".XXXoXXXXXXXXX.o",
".XXXOXoooooXXX.o",
".XXXoXXXXXXXXX.o",
".XXXOXoooooXXX.o",
".XXXXXXXXXXXXX.o",
"...............o",
".XXXXoXXXoXXXX.o",
".XXXXoXXXoXXXX.o",
"...............o",
" ooooooooooooooo",
"                "
};
