/* XPM */
static const char *wksp_noitems_xpm[] = {
/* columns rows colors chars-per-pixel */
"16 16 3 1",
". c Black",
"X c #848484",
"  c None",
/* pixels */
"                ",
"                ",
"                ",
"     .X  .X     ",
"    .X    .X    ",
"    .X    .X    ",
"   .X      .X   ",
"   .X      .X   ",
"   .X      .X   ",
"   .X      .X   ",
"   .X      .X   ",
"    .X    .X    ",
"    .X    .X    ",
"     .X  .X     ",
"                ",
"                "
};
