/* XPM */
static char *wksp_shapes_polygon_xpm[] = {
/* columns rows colors chars-per-pixel */
"16 16 5 1",
"X c Black",
"O c #FFFFFF",
"o c #00FFFF",
". c #0000FF",
"  c None",
/* pixels */
"           ...  ",
"          X.o.  ",
"   ...XXXXO...  ",
"   .o.OOOOOOX   ",
"   ...OOOOOOOX  ",
"   XOOOOOOOOOX  ",
"  XOOOOOOOOOOX  ",
"...OOOOOOOOOOX  ",
".o.OOOOOOOOOO...",
"...XOOOOOOOOO.o.",
"    XOOOOOOOX...",
"     XXOOOOX    ",
"       ...X     ",
"       .o.      ",
"       ...      ",
"                "
};
