/* XPM */
static const char *crs_hand_grap_xpm[] = {
/* columns rows colors chars-per-pixel */
"32 32 3 1",
". c Black",
"X c #FFFFFF",
"  c None",
/* pixels */
"                                ",
"                                ",
"                                ",
"                                ",
"                                ",
"                                ",
"                                ",
"                                ",
"           .. ..                ",
"          .XX.XX...             ",
"          .XX.XX.XX..           ",
"          .XX.XX.XX.X.          ",
"         .X.XXXXXXX.X.          ",
"        .XX.XXXXXXXXX.          ",
"        .XX.XXXXXXXXX.          ",
"        .XXXXXXXXXXXX.          ",
"         .XXXXXXXXXXX.          ",
"         .XXXXXXXXXX.           ",
"          .XXXXXXXXX.           ",
"           .XXXXXXX.            ",
"            .XXXXXX.            ",
"            .XXXXXX.            ",
"                                ",
"                                ",
"                                ",
"                                ",
"                                ",
"                                ",
"                                ",
"                                ",
"                                ",
"                                "
};
