/* XPM */
static const char *nb_active_history_xpm[] = {
"16 16 5 1",
" 	c None",
".	c #000084",
"+	c #4C4C4C",
"@	c #0000FF",
"#	c #00FFFF",
"                ",
"         ....   ",
"        ......  ",
"   .    .+++..+ ",
" . ....  +  ..+ ",
" ..@@.     ..++ ",
" .@..@..  ..++  ",
"..@..@. @ ..+   ",
"  .@@.. @@..+@@ ",
" .... . @#@++@  ",
"    . @@#@..@#@ ",
"       @#@..+#@@",
"        @#@++@  ",
"       @@@##@@  ",
"          @@ @  ",
"          @     "};
