/* XPM */
static const char * nb_active_info_xpm[] = {
/* columns rows colors chars-per-pixel */
"16 16 8 1",
" 	c None",
".	c #0000FF",
"+	c #000084",
"@	c #FFFFFF",
"#	c #000000",
"$	c #848484",
"%	c #D6D6FF",
"&	c #8484FF",
"   .+++.        ",
" .+++@+++.      ",
" +++++++++######",
".+++@@++++.@@@@#",
"+++++@+++++@$$@#",
"+++++@+++++@@@@#",
".++++@++++.$$$@#",
" +++@@@+++@@@@@#",
" .+++++++.$$$$@#",
"   .+++.@$%%%$@#",
"     #@$@$&&&$@#",
"     #@@@$..&$@#",
"     #@$@$...$@#",
"     #@$@$$$$$@#",
"     #@@@@@@@@@#",
"     ###########"};
