/* XPM */
static const char *nb_active_parameters_xpm[] = {
"16 16 10 1",
" 	c None",
".	c #000000",
"+	c #999999",
"@	c #FFFFFF",
"#	c #E5E5E5",
"$	c #E5E5E5",
"%	c #0000FF",
"&	c #00FF00",
"*	c #FFFF00",
"=	c #FF0000",
" .............. ",
" .+@@@@#@@@@@@.$",
" .+...@#@..@@@.$",
" .+@@@@#@@@@@@.$",
" .+..@@#@....@.$",
" .+@@@@#@@@@@@.$",
" .+...@#@%&*=@.$",
" .+@@@@#@@@@@@.$",
" .+..@@#@...@@.$",
" .+@@@@#@@@@@@.$",
" .++++++++++++.$",
" .++@@@#@@@@@@.$",
" .++..@#@.@.@@.$",
" .++@@@#@@@@@@.$",
" ..............$",
"  $$$$$$$$$$$$$$"};
