/* XPM */
static const char *nb_info_error_xpm[] = {
/* columns rows colors chars-per-pixel */
"16 16 3 1",
"X c #FFFFFF",
". c #FF0000",
"  c None",
/* pixels */
"                ",
"      ....      ",
"    ........    ",
"   ....XX....   ",
"  .....XX.....  ",
"  .....XX.....  ",
" ......XX...... ",
" ......XX...... ",
" ......XX...... ",
" ......XX...... ",
"  ............  ",
"  .....XX.....  ",
"   ....XX....   ",
"    ........    ",
"      ....      ",
"                "
};
