/* XPM */
static const char * saga_icon_64_xpm[] = {
"63 64 472 2",
"  	c None",
". 	c #C5D9EF",
"+ 	c #C5D9F0",
"@ 	c #C6D9F1",
"# 	c #C5D9F1",
"$ 	c #BACADE",
"% 	c #BCC9E0",
"& 	c #C5D8F1",
"* 	c #C6D8F1",
"= 	c #C6D8F2",
"- 	c #C3D9F0",
"; 	c #B4CFED",
"> 	c #86B7E5",
", 	c #67A8DF",
"' 	c #4A99DA",
") 	c #338CD6",
"! 	c #2786D4",
"~ 	c #197FD2",
"{ 	c #2283D3",
"] 	c #318BD6",
"^ 	c #4294D9",
"/ 	c #529CDC",
"( 	c #7CB2E3",
"_ 	c #A8C9EB",
": 	c #C4D8F0",
"< 	c #C2D4EB",
"[ 	c #A1C5EA",
"} 	c #5AA0DC",
"| 	c #2484D3",
"1 	c #0172CC",
"2 	c #0071CC",
"3 	c #1079CF",
"4 	c #3C90D7",
"5 	c #80B4E3",
"6 	c #BCD3EF",
"7 	c #C3D7F0",
"8 	c #BDD5EF",
"9 	c #74AEE1",
"0 	c #2584D2",
"a 	c #0071CB",
"b 	c #0C77CE",
"c 	c #4D99D9",
"d 	c #99C2E8",
"e 	c #BDD4EF",
"f 	c #5DA1DC",
"g 	c #68A7DF",
"h 	c #BFD4F0",
"i 	c #6FABE0",
"j 	c #167BCE",
"k 	c #0070CA",
"l 	c #0271CA",
"m 	c #3E90D6",
"n 	c #A4C7EA",
"o 	c #9AC2E8",
"p 	c #2483D1",
"q 	c #4896D8",
"r 	c #91BCE6",
"s 	c #2282D0",
"t 	c #006FC9",
"u 	c #0572CA",
"v 	c #509AD9",
"w 	c #599FDB",
"x 	c #328AD3",
"y 	c #BFD5EF",
"z 	c #A8B3C1",
"A 	c #519AD8",
"B 	c #026FC8",
"C 	c #006EC8",
"D 	c #1C7DCE",
"E 	c #B9D2EE",
"F 	c #2783CF",
"G 	c #006EC7",
"H 	c #006DC6",
"I 	c #006DC7",
"J 	c #006EC6",
"K 	c #0772C8",
"L 	c #0F75C9",
"M 	c #006CC6",
"N 	c #006CC5",
"O 	c #2C73AE",
"P 	c #0D6FBE",
"Q 	c #9FC4E8",
"R 	c #0870C7",
"S 	c #006CC4",
"T 	c #0B6EBC",
"U 	c #3288D0",
"V 	c #026EC5",
"W 	c #85B5E2",
"X 	c #026DC4",
"Y 	c #006BC4",
"Z 	c #0A6CBC",
"` 	c #C3D9F2",
" .	c #BCCCE1",
"..	c #3187CF",
"+.	c #016CC4",
"@.	c #69A6DC",
"#.	c #006BC3",
"$.	c #006BC2",
"%.	c #096CBD",
"&.	c #C4D9F2",
"*.	c #BCCCE0",
"=.	c #5097D5",
"-.	c #C5D8F0",
";.	c #006AC2",
">.	c #026CC2",
",.	c #94BEE5",
"'.	c #BBCCE0",
").	c #0D6CBB",
"!.	c #388ACF",
"~.	c #C0D6EF",
"{.	c #A8B2C0",
"].	c #0068BF",
"^.	c #006AC1",
"/.	c #0D72C4",
"(.	c #1F7DCA",
"_.	c #046DC2",
":.	c #6BA6DA",
"<.	c #BBCBDF",
"[.	c #0C6DB9",
"}.	c #006AC0",
"|.	c #036CC1",
"1.	c #006ABF",
"2.	c #0B70C2",
"3.	c #1F7CC8",
"4.	c #046CC0",
"5.	c #6DA7DA",
"6.	c #BBCBE0",
"7.	c #006BBF",
"8.	c #0069BF",
"9.	c #0069BE",
"0.	c #066CC0",
"a.	c #79A8D1",
"b.	c #1676C3",
"c.	c #076CC0",
"d.	c #76ABDC",
"e.	c #C6D8F0",
"f.	c #2770AB",
"g.	c #0068BE",
"h.	c #1E6DAE",
"i.	c #0069BD",
"j.	c #046BBE",
"k.	c #70A8DB",
"l.	c #1A77C5",
"m.	c #076DBF",
"n.	c #78ACDC",
"o.	c #0067BC",
"p.	c #0068BC",
"q.	c #5498D2",
"r.	c #BED0E4",
"s.	c #207BC5",
"t.	c #076CBE",
"u.	c #79ADDC",
"v.	c #BBCADF",
"w.	c #0066BA",
"x.	c #0067BB",
"y.	c #1B77C2",
"z.	c #B6D0EC",
"A.	c #2179C4",
"B.	c #0B6DBD",
"C.	c #0C6EBD",
"D.	c #076BBD",
"E.	c #7AADDC",
"F.	c #0066B9",
"G.	c #0368BA",
"H.	c #80B1DD",
"I.	c #2179C2",
"J.	c #0C6DBC",
"K.	c #076BBB",
"L.	c #7EAFDC",
"M.	c #0066B8",
"N.	c #076ABA",
"O.	c #93BBE2",
"P.	c #1874BE",
"Q.	c #0C6DBB",
"R.	c #0A6CBB",
"S.	c #86B4DE",
"T.	c #0064B7",
"U.	c #0065B7",
"V.	c #0E6DBB",
"W.	c #97BDE3",
"X.	c #1C75BF",
"Y.	c #096ABA",
"Z.	c #0065B6",
"`.	c #0B6BBA",
" +	c #87B4DE",
".+	c #106EBB",
"++	c #A0C2E5",
"@+	c #1C75BE",
"#+	c #0D6CB9",
"$+	c #0065B5",
"%+	c #0B6BB9",
"&+	c #89B5DF",
"*+	c #0064B5",
"=+	c #1470BB",
"-+	c #B0CCEA",
";+	c #257ABF",
">+	c #0E6CB8",
",+	c #0063B4",
"'+	c #0B6BB8",
")+	c #8AB6DF",
"!+	c #0064B4",
"~+	c #1570BA",
"{+	c #A1C2E5",
"]+	c #B1CCEA",
"^+	c #2A7CC1",
"/+	c #0C6AB7",
"(+	c #90B9E0",
"_+	c #0062B2",
":+	c #0062B3",
"<+	c #166FB9",
"[+	c #8BB5DE",
"}+	c #2277BE",
"|+	c #146FB9",
"1+	c #9DC0E4",
"2+	c #106CB8",
"3+	c #94BBE1",
"4+	c #0062B1",
"5+	c #1770B9",
"6+	c #106CB7",
"7+	c #96BCE1",
"8+	c #0061B1",
"9+	c #3C85C4",
"0+	c #0C68B4",
"a+	c #0564B2",
"b+	c #89B4DD",
"c+	c #0061B0",
"d+	c #116BB6",
"e+	c #97BCE1",
"f+	c #0060B0",
"g+	c #0261B0",
"h+	c #81AFDA",
"i+	c #93BAE0",
"j+	c #0B67B4",
"k+	c #1F73BA",
"l+	c #AAC7E7",
"m+	c #AEBACA",
"n+	c #A3ADB9",
"o+	c #6C9DC9",
"p+	c #146CB6",
"q+	c #116BB5",
"r+	c #98BDE1",
"s+	c #B5C8D9",
"t+	c #0060AF",
"u+	c #0462B0",
"v+	c #92B9DF",
"w+	c #88B3DC",
"x+	c #2073B9",
"y+	c #AAC8E7",
"z+	c #9CBFE3",
"A+	c #146CB5",
"B+	c #116AB4",
"C+	c #9FC1E4",
"D+	c #005FAE",
"E+	c #0562AF",
"F+	c #9ABEE1",
"G+	c #BAD1E9",
"H+	c #2173B9",
"I+	c #ABC8E7",
"J+	c #9BBFE2",
"K+	c #146CB4",
"L+	c #166DB5",
"M+	c #A2C3E4",
"N+	c #005EAC",
"O+	c #0561AE",
"P+	c #9ABDE1",
"Q+	c #C0D2E7",
"R+	c #1D70B6",
"S+	c #629ACE",
"T+	c #639BCE",
"U+	c #3D84C1",
"V+	c #015FAC",
"W+	c #176CB4",
"X+	c #5E98CC",
"Y+	c #629BCE",
"Z+	c #5593C9",
"`+	c #4A8CC6",
" @	c #005DAA",
".@	c #0560AC",
"+@	c #C3D5EC",
"@@	c #0B64AE",
"#@	c #C1D6EF",
"$@	c #005CA8",
"%@	c #035EA9",
"&@	c #8CB4DC",
"*@	c #1469AF",
"=@	c #C2D6EF",
"-@	c #005BA7",
";@	c #015CA7",
">@	c #76A6D3",
",@	c #1E6FB2",
"'@	c #C2D7EF",
")@	c #005AA5",
"!@	c #5893C7",
"~@	c #BED1E7",
"{@	c #3A7FBB",
"]@	c #C4D7F0",
"^@	c #0059A3",
"/@	c #3179B6",
"(@	c #5792C6",
"_@	c #0058A1",
":@	c #0058A2",
"<@	c #0F62A8",
"[@	c #BCD2ED",
"}@	c #79A7D2",
"|@	c #1F6298",
"1@	c #0057A0",
"2@	c #0359A1",
"3@	c #89B1D8",
"4@	c #397CB7",
"5@	c #B8D0EB",
"6@	c #0B5B9D",
"7@	c #A7C4E4",
"8@	c #00569E",
"9@	c #4D89BE",
"0@	c #C6D9F0",
"a@	c #3A7CB6",
"b@	c #00569D",
"c@	c #1C69AA",
"d@	c #00559C",
"e@	c #105FA3",
"f@	c #B4CDE9",
"g@	c #C1D4EB",
"h@	c #3D7EB6",
"i@	c #BBD1EC",
"j@	c #C4D9F0",
"k@	c #00549C",
"l@	c #4F8ABE",
"m@	c #005499",
"n@	c #00549B",
"o@	c #01549B",
"p@	c #6B9CC9",
"q@	c #BBCFE3",
"r@	c #00549A",
"s@	c #4582B9",
"t@	c #BCD2EC",
"u@	c #065599",
"v@	c #93B7DB",
"w@	c #B5C3D5",
"x@	c #005399",
"y@	c #1662A3",
"z@	c #B9D0EB",
"A@	c #4682B8",
"B@	c #1964A4",
"C@	c #C0D5EE",
"D@	c #005297",
"E@	c #6093C2",
"F@	c #4883B7",
"G@	c #BDD2EC",
"H@	c #065496",
"I@	c #6194C3",
"J@	c #B5C4D5",
"K@	c #005195",
"L@	c #0A589A",
"M@	c #9FBFDF",
"N@	c #C1D3EA",
"O@	c #135791",
"P@	c #005095",
"Q@	c #4983B7",
"R@	c #BDD3EC",
"S@	c #1C6096",
"T@	c #0D5A9C",
"U@	c #B5CCE8",
"V@	c #004F93",
"W@	c #005093",
"X@	c #2D6FA9",
"Y@	c #C5D8F2",
"Z@	c #135790",
"`@	c #5289B9",
" #	c #BFD4EE",
".#	c #C3D9F3",
"+#	c #6092C0",
"@#	c #004F91",
"##	c #4B83B6",
"$#	c #12558E",
"%#	c #558ABA",
"&#	c #C0D4EE",
"*#	c #115B99",
"=#	c #145D9B",
"-#	c #A4B8CE",
";#	c #004E8E",
">#	c #004E8F",
",#	c #035091",
"'#	c #5E90BE",
")#	c #C3D7EF",
"!#	c #12558D",
"~#	c #004E90",
"{#	c #568BBA",
"]#	c #A7C0DD",
"^#	c #1C629D",
"/#	c #7AA3CC",
"(#	c #004C8E",
"_#	c #024D8F",
":#	c #5287B7",
"<#	c #C1D5EE",
"[#	c #BFD0E8",
"}#	c #11538C",
"|#	c #004D8F",
"1#	c #588BBA",
"2#	c #B4CBE8",
"3#	c #2969A2",
"4#	c #306EA6",
"5#	c #004B8C",
"6#	c #014C8D",
"7#	c #467DAF",
"8#	c #BFD4ED",
"9#	c #BCD1E6",
"0#	c #11528A",
"a#	c #004C8D",
"b#	c #5A8CBA",
"c#	c #A4C1DF",
"d#	c #24659F",
"e#	c #0C5493",
"f#	c #00488A",
"g#	c #004A8A",
"h#	c #3570A5",
"i#	c #ACC6E3",
"j#	c #BFCFE5",
"k#	c #105189",
"l#	c #014B8B",
"m#	c #6492BE",
"n#	c #81A7CD",
"o#	c #115793",
"p#	c #004987",
"q#	c #004988",
"r#	c #0E5490",
"s#	c #749EC6",
"t#	c #C5D7F0",
"u#	c #ACB8C8",
"v#	c #27659C",
"w#	c #014A89",
"x#	c #6693BE",
"y#	c #AAC5E2",
"z#	c #4279AB",
"A#	c #024B89",
"B#	c #004787",
"C#	c #004887",
"D#	c #216099",
"E#	c #82A8CC",
"F#	c #BCD2EB",
"G#	c #4178AA",
"H#	c #014A88",
"I#	c #004785",
"J#	c #195992",
"K#	c #6490BB",
"L#	c #A3BFDE",
"M#	c #B9CFE9",
"N#	c #3B73A5",
"O#	c #004682",
"P#	c #004683",
"Q#	c #1B5A92",
"R#	c #487BAB",
"S#	c #6B95BE",
"T#	c #8DAED1",
"U#	c #9AB8D8",
"V#	c #ADC7E3",
"W#	c #97B6D7",
"X#	c #729BC2",
"Y#	c #10528C",
"Z#	c #004582",
"`#	c #004480",
" $	c #004481",
".$	c #00427E",
"+$	c #00437E",
"@$	c #174C7D",
"#$	c #00427C",
"$$	c #00417A",
"%$	c #00417B",
"&$	c #004079",
"*$	c #004077",
"=$	c #004078",
"-$	c #13497A",
";$	c #40607C",
"                                                                                                                              ",
"                                                    . + @ @ @ @ @ @ @ @ @ @ # $                                               ",
"                                            % & @ @ @ @ @ @ @ @ @ @ @ @ @ @ @ @ @ * =                                         ",
"                                        - + @ ; > , ' ) ! ~ ~ { ] ^ / ( _ : @ @ @ @ @ @ &             < +                     ",
"                                    - : [ } | 1 2 2 2 2 2 2 2 2 2 2 2 2 2 3 4 5 6 @ @ @ @ @ &       7 @ @                     ",
"                                  8 9 0 a a a a a a a a a a a a a a a a a a a a b c d : @ @ @ @ e f g @ @                     ",
"                              h i j k k k k k k k k k k k k k k k k k k k k k k k k l m n @ @ o p k q : @                     ",
"                            r s t t t t t t t t t t t t t t t t t t t t t t t t t t t t u v w u t t x y @ z                   ",
"                          A B C C C C C C C C C C C C C C C C C C C C C C C C C C C C C C C C C C C D E @ #                   ",
"                        F G G G G G G G G G G G G G G H H G G I H J G G G G G G G G G G G G G G G G K ; @ +                   ",
"                      L H H H H H H H H H H M N O                       P N H H H H H H H H H H H H H Q @ +                   ",
"                    R N N N N N N N N N S T                                   U V N N N N N N N N N N W @ @                   ",
"                  X S S S S S S S S Y Z                       `  .            ..+.S S S S S S S S S S @.@ @                   ",
"                #.#.#.#.#.#.#.#.$.%.                        &.@ @ *.        $.#.#.#.#.#.#.#.#.#.#.#.#.=.-.@                   ",
"              ;.$.$.$.$.$.$.$.>.                          ,.: @ @ @ '.  ).;.$.$.$.$.$.$.$.$.$.$.$.$.$.!.~.@ {.                ",
"            ].^.^.^.^.^.^.^./.                          (._.:.: @ @ @ <.      [.}.^.^.^.^.^.^.^.^.^.^.|.                      ",
"            1.1.1.1.1.1.1.2.                          3.1.1.4.5.-.@ @ @ 6.              7.8.8.1.1.1.1.8.                      ",
"          9.9.9.9.9.9.9.0.a.                        b.9.9.9.9.c.d.-.@ @ e.<.                    f.g.g.9.                      ",
"        h.i.i.i.i.i.i.j.k.                        l.i.i.i.i.i.i.m.n.-.@ @ e.<.                                                ",
"        o.p.p.p.p.p.p.q.r.                      s.p.p.p.p.p.p.p.p.t.u.-.@ @ e.v.                                              ",
"      w.x.x.x.x.x.x.y.z.#                     A.x.B.C.x.x.x.x.x.x.x.D.E.-.@ @ e.$                                             ",
"      F.F.F.F.F.F.G.H.@ @ #                 I.F.J.    F.F.F.F.F.F.F.F.K.L.@ @ @ *                                             ",
"      M.M.M.M.M.M.N.O.@ @ @ #             P.M.Q.        M.M.M.M.M.M.M.M.R.S.@ @ @ *                                           ",
"    T.U.U.U.U.U.U.U.V.W.@ @ @ #         X.U.Y.            Z.U.U.U.U.U.U.U.`. +@ @ @ *                                         ",
"    Z.Z.Z.Z.Z.Z.Z.Z.Z..+++@ @ @ -.    @+Z.#+                $+Z.Z.Z.Z.Z.Z.Z.%+&+@ @ @ *                                       ",
"    *+*+*+*+*+*+*+*+*+*+=+++@ @ @ -+;+*+>+                    ,+*+*+*+*+*+*+*+'+)+@ @ @ #                                     ",
"  !+,+,+,+,+,+,+,+,+,+,+,+~+{+@ ]+^+,+>+                        ,+,+,+,+,+,+,+,+/+(+@ @ @ #                                   ",
"  _+:+:+:+:+:+:+:+:+:+:+:+:+<+[+}+:+|+1+                          _+:+:+:+:+:+:+:+2+3+@ @ @ #                                 ",
"  4+_+_+_+_+_+_+_+_+_+_+_+_+4+_+_+5+1+@ -.                          4+_+_+_+_+_+_+_+6+7+@ @ @ #                               ",
"  8+8+8+8+8+8+9+0+8+8+8+8+8+8+8+a+b+@ @ @ e.                          c+8+8+8+8+8+8+8+d+e+@ @ @ #                             ",
"  f+f+f+f+f+g+h+i+j+f+f+f+f+f+f+f+k+l+@ @ @ e.m+n+n+n+n+n+n+n+n+n+n+n+o+p+f+f+f+f+f+f+f+q+r+@ @ @ * s+n+n+n+n+n+n+n+n+n+n+    ",
"  t+t+t+t+t+u+v+-.w+t+t+t+t+t+t+t+t+x+y+@ @ @ @ @ @ @ @ @ @ @ @ @ @ @ @ z+A+t+t+t+t+t+t+t+B+C+@ @ @ -.-.@ @ @ @ @ @ @ @ @ @   ",
"  D+D+D+D+D+E+F+@ G+  D+D+D+D+D+D+D+D+H+I+@ @ @ @ @ @ @ @ @ @ @ @ @ @ @ @ J+K+D+D+D+D+D+D+D+L+M+@ -.-.@ @ @ @ @ @ @ @ @ @ @   ",
"  N+N+N+N+N+O+P+@ Q+    N+N+N+N+N+N+N+N+R+S+T+T+T+T+T+T+T+T+T+T+T+T+T+T+T+T+U+V+N+N+N+N+N+N+N+W+X+Y+T+T+T+Z+`+`+`+`+`+`+7 @   ",
"   @ @ @ @ @.@P+@ +@       @ @ @ @ @ @ @ @ @ @ @ @ @ @ @ @ @ @ @ @ @ @ @ @ @ @ @ @ @ @ @ @ @ @ @ @ @ @ @ @ @ @ @ @ @ @@@#@@   ",
"  $@$@$@$@$@%@&@@ #         $@$@$@$@$@$@$@$@$@$@$@$@$@$@$@$@$@$@$@$@$@$@$@$@$@$@$@$@$@$@$@$@$@$@$@$@$@$@$@$@$@$@$@$@$@*@=@@   ",
"  -@-@-@-@-@;@>@@ *           -@-@-@-@-@-@-@-@-@-@-@-@-@-@-@-@-@-@-@-@-@-@-@-@-@-@-@-@-@-@-@-@-@-@-@-@-@-@-@-@-@-@-@-@,@'@+   ",
"  )@)@)@)@)@)@!@@ @ ~@          )@)@)@)@)@)@)@)@)@)@)@)@)@)@)@)@)@)@)@)@)@)@)@)@)@)@)@)@)@)@)@)@)@)@)@)@)@)@)@)@)@)@)@{@]@.   ",
"  ^@^@^@^@^@^@/@@ @ -.            ^@^@^@^@^@^@^@^@^@^@^@^@^@^@^@^@^@^@^@^@^@^@^@^@^@^@^@^@^@^@^@^@^@^@^@^@^@^@^@^@^@^@(@-.    ",
"  _@:@:@:@:@:@<@[@@ *               :@:@:@:@:@:@:@:@:@:@:@:@:@:@:@:@:@:@:@:@:@:@:@:@:@:@:@:@:@:@:@:@:@:@:@:@:@:@:@:@:@}@@     ",
"  |@1@1@1@1@1@2@3@@ @ <               1@1@1@1@1@1@1@1@4@5@@ @ @ -.                                      6@1@1@1@1@1@1@7@-.    ",
"    8@8@8@8@8@8@9@@ @ 0@                8@8@8@8@8@8@8@8@a@5@@ @ @ -.                                    b@8@8@8@8@8@c@#@      ",
"    d@d@d@d@d@d@e@f@@ @ g@                d@d@d@d@d@d@d@d@h@i@@ @ @ j@                                  k@d@d@d@d@d@l@:       ",
"    m@n@n@n@n@n@o@p@@ @ + q@                r@n@n@n@n@n@n@n@s@t@@ @ @ j@                              u@n@n@n@n@n@n@v@w@      ",
"      x@x@x@x@x@x@y@z@@ @ -.                  x@x@x@x@x@x@x@x@A@t@@ @ @ j@                            x@x@x@x@x@x@B@C@        ",
"      D@D@D@D@D@D@D@E@@ @ @ +                   D@D@D@D@D@D@D@D@F@G@@ @ @ j@                        H@D@D@D@D@D@D@I@J@        ",
"        K@K@K@K@K@K@L@M@@ @ @ N@                O@P@K@K@K@K@K@K@K@Q@R@@ @ @ j@                    S@K@K@K@K@K@K@T@U@          ",
"        V@W@W@W@W@W@W@X@G@@ @ @ Y@                Z@V@W@W@W@W@W@W@W@`@ #@ @ @ .#                  H@W@W@W@W@W@W@+#            ",
"          @#@#@#@#@#@#@###: @ @ @ *                 $#@#@#@#@#@#@#@#@#%#&#@ @ @ .#              *#@#@#@#@#@#@#=#-#            ",
"          ;#>#>#>#>#>#>#,#'#)#@ @ @ -.                !#>#>#>#>#>#>#>#~#{#&#@ @ @ .#        ]#^#>#>#>#>#>#>#>#/#              ",
"            (#(#(#(#(#(#(#_#:#<#@ @ @ 0@[#              }#(#(#(#(#(#(#(#|#1#C@@ @ @ .#    2#3#(#(#(#(#(#(#(#4#                ",
"              5#5#5#5#5#5#5#6#7#8#@ @ @ @ e.9#            0#5#5#5#5#5#5#5#a#b#<#@ @ @ e.c#d#5#5#5#5#5#5#5#e#                  ",
"              f#g#g#g#g#g#g#g#g#h#i#@ @ @ @ @ * j#          k#g#g#g#g#g#g#g#l#m#=@@ : n#o#g#g#g#g#g#g#g#l#                    ",
"                p#q#q#q#q#q#q#q#q#r#s#C@@ @ @ @ @ @ * t#u#    v#q#q#q#q#q#q#q#w#x#y#z#A#q#q#q#q#q#q#q#q#                      ",
"                  B#C#C#C#C#C#C#C#C#C#D#E#C@@ @ @ @ @ @ @ @ @ F#G#C#C#C#C#C#C#C#q#H#C#C#C#C#C#C#C#C#C#                        ",
"                    I#I#I#I#I#I#I#I#I#I#I#J#K#L#-.@ @ @ @ @ @ @ M#N#I#I#I#I#I#I#I#I#I#I#I#I#I#I#I#I#                          ",
"                      O#P#P#P#P#P#P#P#P#P#P#P#P#Q#R#S#T#U#V#V#y#W#X#Y#P#P#P#P#P#P#P#P#P#P#P#P#P#P#                            ",
"                          Z#Z#Z#Z#Z#Z#Z#Z#Z#Z#Z#Z#Z#Z#Z#Z#Z#Z#Z#Z#Z#Z#Z#Z#Z#Z#Z#Z#Z#Z#Z#Z#Z#Z#Z#                              ",
"                            `#`#`#`#`#`#`#`#`#`#`#`#`#`#`#`#`#`#`#`#`#`#`#`#`#`#`#`#`#`#`#`# $                                ",
"                                .$+$+$+$+$+$+$+$+$+$+$+$+$+$+$+$+$+$+$+$+$+$+$+$+$+$+$+$.$                                    ",
"                                  @$#$#$#$#$#$#$#$#$#$#$#$#$#$#$#$#$#$#$#$#$#$#$#$#$#$                                        ",
"                                        $$$$$$$$$$$$$$$$$$$$$$$$$$$$$$$$$$$$$$$$%$                                            ",
"                                              &$*$=$=$=$=$=$=$=$=$=$=$=$=$-$                                                  ",
"                                                          ;$;$                                                                "};
