/* XPM */
static const char *saga_icon_16_xpm[] = {
/* columns rows colors chars-per-pixel */
"16 16 3 1",
". c #C8D7FF",
"X c #004B96",
"  c None",
/* pixels */
"      .....   . ",
"    .XXXXX...X. ",
"   XXXXXXXXX.X. ",
"  XX    .  XXX..",
" XX.   X..XXXXX.",
" XX.. XXX..  XX ",
"XXXX.X XXX..    ",
"X.XXX.. XXX..   ",
"X. XXX...XXX....",
"X.. XXXXXXXXXXX.",
"XX.  XXX..    X.",
" X..  XXX..  XX ",
" XX..  XXX.. X. ",
"  XX... XXX.XX  ",
"   XXX...XXXX   ",
"     XXXXXX     "
};
