/* XPM */
static const char * saga_icon_32_xpm[] = {
"31 32 189 2",
"  	c None",
". 	c #C7D7F1",
"+ 	c #C6D8F1",
"@ 	c #ADCCED",
"# 	c #C6D9F1",
"$ 	c #C6DAF2",
"% 	c #BBD1EE",
"& 	c #80B3E2",
"* 	c #4B99DB",
"= 	c #0C78CE",
"- 	c #0071CC",
"; 	c #2B88D4",
"> 	c #3E92D8",
", 	c #75AEE2",
"' 	c #C0D6EF",
") 	c #C6D9F2",
"! 	c #AFCDED",
"~ 	c #C5D9F1",
"{ 	c #65A5DD",
"] 	c #0C77CC",
"^ 	c #0070CA",
"/ 	c #137ACE",
"( 	c #69A8DF",
"_ 	c #BAD2EF",
": 	c #94BFE8",
"< 	c #79AFE1",
"[ 	c #1378CC",
"} 	c #006EC8",
"| 	c #0C75CB",
"1 	c #A7C8EA",
"2 	c #5D9DD7",
"3 	c #0671C8",
"4 	c #006DC6",
"5 	c #0471C6",
"6 	c #006EC7",
"7 	c #026DC6",
"8 	c #88B7E3",
"9 	c #448FD3",
"0 	c #006CC4",
"a 	c #1778CB",
"b 	c #C6D7EF",
"c 	c #2B85D0",
"d 	c #6FA9DD",
"e 	c #066FC2",
"f 	c #006BC1",
"g 	c #0B70C4",
"h 	c #8EBBE4",
"i 	c #0069C2",
"j 	c #4994D3",
"k 	c #C4DAF3",
"l 	c #0E72C2",
"m 	c #006ABF",
"n 	c #1C79C6",
"o 	c #7BAFDE",
"p 	c #0068BD",
"q 	c #006ABE",
"r 	c #006ABD",
"s 	c #3A8ACD",
"t 	c #1977C4",
"u 	c #0069BE",
"v 	c #7BAEDD",
"w 	c #086ABC",
"x 	c #0067BA",
"y 	c #0067B9",
"z 	c #2B80C6",
"A 	c #BED3EF",
"B 	c #3685C9",
"C 	c #1875C1",
"D 	c #0167B9",
"E 	c #7BAEDC",
"F 	c #0065B8",
"G 	c #7CAEDC",
"H 	c #C4D9F1",
"I 	c #3684C8",
"J 	c #1F77C1",
"K 	c #7BADDB",
"L 	c #0063B6",
"M 	c #0064B6",
"N 	c #0668B8",
"O 	c #8EB8E0",
"P 	c #3685C7",
"Q 	c #1F76BF",
"R 	c #7BADDA",
"S 	c #0162B2",
"T 	c #0063B2",
"U 	c #0063B3",
"V 	c #0667B5",
"W 	c #8EB8DF",
"X 	c #4B90CB",
"Y 	c #2377BE",
"Z 	c #7BACD9",
"` 	c #0061B1",
" .	c #0564B2",
"..	c #0363B3",
"+.	c #1B71BA",
"@.	c #BAD1ED",
"#.	c #7BABD8",
"$.	c #0060AF",
"%.	c #8AB4DC",
"&.	c #0060B0",
"*.	c #0664B2",
"=.	c #8EB7DE",
"-.	c #A1C2E5",
";.	c #0C68B3",
">.	c #C7D9F1",
",.	c #005FAD",
"'.	c #0C67B1",
").	c #005FAC",
"!.	c #B3CEEA",
"~.	c #005DA9",
"{.	c #005CA9",
"].	c #7BAAD5",
"^.	c #005BA6",
"/.	c #ADC9E8",
"(.	c #93B8DD",
"_.	c #0058A2",
":.	c #0059A2",
"<.	c #88B1D8",
"[.	c #A4C2E2",
"}.	c #00559D",
"|.	c #00569F",
"1.	c #518CC0",
"2.	c #0C5FA4",
"3.	c #A1C0E2",
"4.	c #C5DAF2",
"5.	c #236DAE",
"6.	c #1966A9",
"7.	c #00549B",
"8.	c #0C5DA0",
"9.	c #C0D5EE",
"0.	c #A1C0E1",
"a.	c #1C66A8",
"b.	c #4B87BC",
"c.	c #005196",
"d.	c #005297",
"e.	c #6F9EC9",
"f.	c #0C5B9D",
"g.	c #A1BFE0",
"h.	c #6397C6",
"i.	c #5D91C1",
"j.	c #005094",
"k.	c #065597",
"l.	c #ADC8E6",
"m.	c #0C599A",
"n.	c #AFCAE7",
"o.	c #135D9D",
"p.	c #1C63A1",
"q.	c #004E90",
"r.	c #2B6DA6",
"s.	c #BAD0EB",
"t.	c #0C5796",
"u.	c #A1BFDF",
"v.	c #BCD3ED",
"w.	c #3875AC",
"x.	c #004C8C",
"y.	c #25679F",
"z.	c #C6D9F0",
"A.	c #0C5592",
"B.	c #A1BEDE",
"C.	c #C1D5EE",
"D.	c #447DAF",
"E.	c #105794",
"F.	c #004989",
"G.	c #135693",
"H.	c #8EB1D4",
"I.	c #C7D9F0",
"J.	c #5386B5",
"K.	c #0C528F",
"L.	c #83A8CE",
"M.	c #1F609A",
"N.	c #034B8A",
"O.	c #004585",
"P.	c #004785",
"Q.	c #3870A4",
"R.	c #82A6CC",
"S.	c #6390BB",
"T.	c #004582",
"U.	c #256197",
"V.	c #326A9E",
"W.	c #2B669B",
"X.	c #004482",
"Y.	c #00417D",
"Z.	c #00437E",
"`.	c #00437D",
" +	c #004278",
".+	c #004179",
"++	c #00417A",
"@+	c #00427A",
"#+	c #004078",
"                                                              ",
"                        . + @ @ # # + $                       ",
"                  % & * = - - - - ; > , ' + )   ! ~           ",
"                { ] ^ ^ ^ ^ ^ ^ ^ ^ ^ ^ / ( _ : / '           ",
"            < [ } } } } } } } } } } } } } } | } } 1           ",
"          2 3 4 4 4 4 5             6 7 4 4 4 4 4 8           ",
"        9 0 0 0 0 a           b       c 0 0 0 0 0 d           ",
"        e f f g             h # +   i f f f f f f j k         ",
"      l m m m             n m o # +         p q m r           ",
"      p p p s           t u p p v # +                         ",
"    w x y z A         B C D x x x E # +                       ",
"    F F F G # H     I J     F F F F K # +                     ",
"  L M M M N O # H P Q         M M M M R # +                   ",
"  S T U U U V W X Y             U U U U Z # +                 ",
"  ` ` `  .` ` ..+.@.H             ` ` ` ` #.# +               ",
"  $.$.$.%.&.$.$.*.=.# # # # # # # -.;.$.$.$.#.# >.# # # # #   ",
"  ,.,.,.#   ,.,.,.'.).,.,.,.,.,.,.,.).,.,.,.,.,.,.,.,.,.,.!.  ",
"  ~.~.~.#     ~.~.~.~.{.~.~.~.~.~.~.~.{.~.~.~.{.~.~.~.~.~.].  ",
"  ^.^.^./.      ^.^.^.^.^.^.^.^.^.^.^.^.^.^.^.^.^.^.^.^.^.(.  ",
"  _.:.:.<.+       :.:.:.:.:.:.:.:.:.:.:.:.:.:.:.:.:.:.:.:.[.  ",
"  }.|.|.1.#         |.|.|.2.3.# 4.                5.|.|.6.    ",
"    7.7.8.9.~         7.7.7.8.0.# 4.              a.7.7.b.    ",
"    c.d.d.e.# H         d.d.d.f.g.# 4.          h.d.d.d.i.    ",
"    j.j.j.k.l.# H         j.j.j.m.g.# 4.      n.o.j.j.p.      ",
"      q.q.q.r.s.# +         q.q.q.t.u.# 4.  v.w.q.q.q.        ",
"        x.x.x.y.s.# # z.      x.x.x.A.B.# C.D.x.x.x.E.        ",
"        F.F.F.F.G.H.# # # # I.J.F.F.F.K.L.M.F.F.F.N.          ",
"          O.P.P.P.P.Q.R.# # # # S.P.P.P.P.P.P.P.P.            ",
"              T.T.T.T.T.T.U.V.V.W.T.T.T.T.T.T.X.              ",
"                Y.Z.Z.Z.Z.Z.Z.Z.Z.Z.Z.Z.Z.`.                  ",
"                     +.+++++++++++++.+@+                      ",
"                            #+#+                              "};
