/* XPM */
static const char * tb_active_xpm[] = {
"16 16 7 1",
" 	c None",
".	c #000000",
"+	c #FFFFFF",
"@	c #848484",
"#	c #007BFF",
"$	c #0000FF",
"%	c #000084",
"                ",
"............... ",
".+++++++++++++.@",
".+@@@@@+++++++.@",
".+++++++@+##++.@",
".+@@@@@+++$$++.@",
".+++++++@+$$++.@",
".+@@@@@+++%%++.@",
".+++++++@+%%++.@",
".+++++++++++++.@",
"...............@",
".++++@+++@++++.@",
".++++@+++@++++.@",
"...............@",
" @@@@@@@@@@@@@@@",
"                "};
