/* XPM */
static const char *tb_clipboard_xpm[] = {
"16 16 8 1",
" 	c None",
".	c #FFFFFF",
"+	c #000000",
"@	c #00007F",
"#	c #E5E5E5",
"$	c #666666",
"%	c #999999",
"&	c #CCCCCC",
".......++.......",
"..@@#++++++#@@..",
"..@..++++++..@..",
"..@..........@..",
"..@.$$$$$$$$.@..",
"..@..........@..",
"..@.%%%%%%%%.@..",
"..@..........@..",
"..@.&&&&&&&&.@..",
"..@..........@..",
"..@.########.@..",
"..@.########.@..",
"..@..........@..",
"..@@@@@@@@@@@@..",
"..@@@@@@@@@@@@..",
"................"};
