/* XPM */
static const char * tb_datasource_xpm[] = {
"48 45 272 2",
"  	c None",
". 	c #000000",
"+ 	c #9F9F9F",
"@ 	c #B3B3B3",
"# 	c #C7C7C7",
"$ 	c #DFDFDF",
"% 	c #FBFBFB",
"& 	c #FFFFFF",
"* 	c #7F7F7F",
"= 	c #9B9B9B",
"- 	c #CFCFCF",
"; 	c #CBCBCB",
"> 	c #CDCDCD",
", 	c #C0C0C0",
"' 	c #B0B0B0",
") 	c #9C9C9C",
"! 	c #838383",
"~ 	c #8B8B8B",
"{ 	c #E7E7E7",
"] 	c #0000FF",
"^ 	c #E4E4E4",
"/ 	c #EAEAEA",
"( 	c #EDEDED",
"_ 	c #F0F0F0",
": 	c #F2F2F2",
"< 	c #F1F1F1",
"[ 	c #969696",
"} 	c #8F8F8F",
"| 	c #F5F5F5",
"1 	c #C5C5C5",
"2 	c #848484",
"3 	c #E3E3E3",
"4 	c #D4D4D4",
"5 	c #B9B9B9",
"6 	c #A8A8A8",
"7 	c #A9A9A9",
"8 	c #999999",
"9 	c #B5B5B5",
"0 	c #C9C9C9",
"a 	c #E8E8E8",
"b 	c #F8F8F8",
"c 	c #D3D3D3",
"d 	c #D8D8D8",
"e 	c #DCDCDC",
"f 	c #E1E1E1",
"g 	c #E6E6E6",
"h 	c #EFEFEF",
"i 	c #F3F3F3",
"j 	c #828282",
"k 	c #B7B7B7",
"l 	c #ECECEC",
"m 	c #C3C3C3",
"n 	c #CCCCCC",
"o 	c #A5A5A5",
"p 	c #9D9D9D",
"q 	c #858585",
"r 	c #929292",
"s 	c #B1B1B1",
"t 	c #7E93A8",
"u 	c #48596E",
"v 	c #314967",
"w 	c #48607E",
"x 	c #49617F",
"y 	c #4B6381",
"z 	c #4C6482",
"A 	c #4D6583",
"B 	c #4E6684",
"C 	c #455D7B",
"D 	c #586472",
"E 	c #CCD3DC",
"F 	c #EDF1F3",
"G 	c #586F8B",
"H 	c #1E3D63",
"I 	c #0E223A",
"J 	c #17375E",
"K 	c #4A6381",
"L 	c #99A7B8",
"M 	c #F0F2F5",
"N 	c #456482",
"O 	c #1F3E63",
"P 	c #224166",
"Q 	c #264569",
"R 	c #3C587A",
"S 	c #5B7493",
"T 	c #788FAA",
"U 	c #869CB7",
"V 	c #8BA1BB",
"W 	c #91A6C1",
"X 	c #95ABC5",
"Y 	c #9AAEC7",
"Z 	c #9DB1C8",
"` 	c #A2B4CA",
" .	c #A6B7CB",
"..	c #798EA7",
"+.	c #627A97",
"@.	c #455F7F",
"#.	c #2D4A6D",
"$.	c #D3D9E1",
"%.	c #ACBDC9",
"&.	c #214065",
"*.	c #546D8B",
"=.	c #8094AC",
"-.	c #91A4BA",
";.	c #98AAC1",
">.	c #9FB1C8",
",.	c #A5B7CE",
"'.	c #ABBED4",
").	c #B2C4DA",
"!.	c #B9CBE1",
"~.	c #BFD1E7",
"{.	c #C5D5E9",
"].	c #CAD9EB",
"^.	c #D0DDED",
"/.	c #D5E1EF",
"(.	c #DBE5F1",
"_.	c #E0E9F4",
":.	c #E6EDF6",
"<.	c #E6EBF3",
"[.	c #A6B3C4",
"}.	c #415C7B",
"|.	c #345072",
"1.	c #050505",
"2.	c #3A5678",
"3.	c #7A8EA7",
"4.	c #8B9EB4",
"5.	c #ECF1F8",
"6.	c #EAEFF5",
"7.	c #95A4B6",
"8.	c #314E71",
"9.	c #546E8C",
"0.	c #637B98",
"a.	c #7D93AE",
"b.	c #A1B3CB",
"c.	c #B6C4D6",
"d.	c #9BACC0",
"e.	c #7F92AA",
"f.	c #546C8A",
"g.	c #235F6F",
"h.	c #246373",
"i.	c #266778",
"j.	c #276B7D",
"k.	c #397181",
"l.	c #457684",
"m.	c #557B85",
"n.	c #567D87",
"o.	c #577F89",
"p.	c #58818C",
"q.	c #58828E",
"r.	c #618792",
"s.	c #6A8D96",
"t.	c #1D3D64",
"u.	c #476180",
"v.	c #296E81",
"w.	c #2A7286",
"x.	c #2B768A",
"y.	c #2D7A8E",
"z.	c #2E7E93",
"A.	c #308298",
"B.	c #31859C",
"C.	c #438FA4",
"D.	c #559AAD",
"E.	c #28486E",
"F.	c #325177",
"G.	c #34547A",
"H.	c #315177",
"I.	c #304F76",
"J.	c #294870",
"K.	c #193960",
"L.	c #385578",
"M.	c #506B8B",
"N.	c #768DA6",
"O.	c #A0B0C4",
"P.	c #D4DEE8",
"Q.	c #F1F6FA",
"R.	c #4F6E77",
"S.	c #276473",
"T.	c #335278",
"U.	c #3E5D83",
"V.	c #48688D",
"W.	c #537298",
"X.	c #5E7DA3",
"Y.	c #6988AD",
"Z.	c #7593B8",
"`.	c #7F9EC2",
" +	c #8AA9CD",
".+	c #95B3D7",
"++	c #9EBADA",
"@+	c #A7C1DE",
"#+	c #B1C7E1",
"$+	c #BACEE5",
"%+	c #C3D4E8",
"&+	c #CCDBEC",
"*+	c #D5E2EF",
"=+	c #DFE8F3",
"-+	c #E8EFF6",
";+	c #797D7E",
">+	c #60777C",
",+	c #53757E",
"'+	c #447381",
")+	c #3A7585",
"!+	c #E2EAF1",
"~+	c #91A2B5",
"{+	c #326775",
"]+	c #51737C",
"^+	c #687A7F",
"/+	c #747D7F",
"(+	c #7B7E7F",
"_+	c #203F66",
":+	c #305075",
"<+	c #3A5A80",
"[+	c #4C6C92",
"}+	c #6786AB",
"|+	c #A2B6CE",
"1+	c #8EA2BB",
"2+	c #506A89",
"3+	c #1B3B62",
"4+	c #355173",
"5+	c #17365D",
"6+	c #2B4B72",
"7+	c #23436A",
"8+	c #18385F",
"9+	c #2A496D",
"0+	c #425E80",
"a+	c #738AA4",
"b+	c #979797",
"c+	c #5C7379",
"d+	c #2D6674",
"e+	c #D7D7D7",
"f+	c #6B7A7D",
"g+	c #4C7580",
"h+	c #3F7584",
"i+	c #2E768A",
"j+	c #19395F",
"k+	c #204066",
"l+	c #ACBAC9",
"m+	c #ABABAB",
"n+	c #24446B",
"o+	c #405F85",
"p+	c #506F96",
"q+	c #B3C5DB",
"r+	c #9FB2C9",
"s+	c #5C7492",
"t+	c #2B486C",
"u+	c #224268",
"v+	c #204067",
"w+	c #1C3C62",
"x+	c #17375F",
"y+	c #4C6685",
"z+	c #9FAEBF",
"A+	c #47678D",
"B+	c #48678D",
"C+	c #406085",
"D+	c #46658B",
"E+	c #4B6B90",
"F+	c #517095",
"G+	c #56759A",
"H+	c #5B799C",
"I+	c #5F7C9E",
"J+	c #647F9F",
"K+	c #6983A1",
"L+	c #7C94AF",
"M+	c #CFDDEB",
"N+	c #7689A0",
"O+	c #BDC6D1",
"P+	c #435D7C",
"Q+	c #E2E6EB",
"R+	c #B6C0CC",
"S+	c #8B9BAE",
"T+	c #607691",
"U+	c #516987",
"V+	c #8495AA",
"W+	c #A0ADBD",
"                                                                                                ",
"                                                                                                ",
"    . . . . . . . . . . . . . . . . . . . . . . . . .                                           ",
"    . . . . . . . . . . . . . . . . . . . . . . . . . + + + @ # $ %                             ",
"    . . & & & & & & & & & & & & & & & & & & & & & . . * * * * * * * = -                         ",
"    . . & & & & & & & & & & & & & & & & & & & & & . . ; > - , ' ) ! * * ~ {                     ",
"    . . & ] ] & & & & & & & & & & & & & & & & & & . . ^ { / ( _ : < ; [ * }                     ",
"    . . & ] ] & & & & & & & & & & & & & & & & & & . . ^ { / ( _ : | _ 1 * *                     ",
"    . . & 2 2 2 2 ] & & 2 2 2 2 2 2 2 2 & & & & & . . ^ { / 3 4 5 6 ! * * *                     ",
"    . . & & & & & 2 & & & & & & & & & & & & & & & . . * * * * * * * * 7 * *                     ",
"    . . & & & & & 2 & & & & & & & & & & & & & & & . . * * * ~ 8 9 0 a b * *                     ",
"    . . & & & & & ] & & 2 2 2 2 2 2 2 2 & & & & & . . c d e f g / h i b * *                     ",
"    . . & & & & & 2 & & & & & & & & & & & & & & & . . 0 d e f g / h i b * *                     ",
"    . . & & & & & 2 & & & & & & & & & & & & & & & . . j k e f g / h l m * *                     ",
"    . . & & & & & ] & & 2 2 2 2 2 2 2 2 & & & & & . . * j e d n 9 o j * * *                     ",
"    . . & & & & & ] & & 2 2 2 2 2 2 2 2 & & & & & . . * * * * * * * * p * *                     ",
"    . . & & & & & & & & & & & & & & & & & & & & & . . * * * q r s 0 a b * *                     ",
"    . . . . . . . . . . . . . . . . . . . . . . . . . * * e f g / h i b * *                     ",
"    . . . . . . . . . . . . . . . . . . . . . . . . t u v w x y z A B C u D E                   ",
"    . . & & & & & & 2 2 & & & & & 2 & & & & F G H I J J J J J J J J J J J J J J K L M           ",
"    . . & & & & & & 2 2 & & & & & 2 & & N O P J Q R S T U V W X Y Z `  ...+.@.J J J #.$.        ",
"    . . & & & & & & 2 2 & & & & & 2 & %.J &.*.=.-.;.>.,.'.).!.~.{.].^./.(._.:.<.[.}.J |.        ",
"    . . . . . . . . . . . . . . . . 1.J J 2.3.4.-.;.>.,.'.).!.~.{.].^./.(._.:.5.6.7.J J         ",
"    . . . . . . . . . . . . . . . . . J J J J 8.9.0.a.b.'.).!.~.{.].^./.c.d.e.f.J J J J         ",
"        * * g.h.i.j.k.l.m.n.o.p.q.r.s.J J t.J J J J J J J J J J J J J J J J J J J u.J J         ",
"        * * g.h.i.j.v.w.x.y.z.A.B.C.D.J J E.F.G.H.I.J.K.J J J J J J J J L.M.N.O.P.Q.J J         ",
"        * * R.S.i.j.v.w.x.y.z.A.B.C.D.J J E.T.U.V.W.X.Y.Z.`. +.+++@+#+$+%+&+*+=+-+Q.J J         ",
"        * * * ;+>+,+'+)+x.y.z.A.B.C.D.J J E.T.U.V.W.X.Y.Z.`. +.+++@+#+$+%+&+*+=+-+Q.J J         ",
"        * * ;+* * * * * * * * * * * * J J t.I.U.V.W.X.Y.Z.`. +.+++@+#+$+%+&+*+=+!+~+J J         ",
"        * * g.{+]+^+/+(+* * * * * * * J J J J _+:+<+[+}+Z.`. +.+++@+#+$+|+1+N.2+J J J J         ",
"        * * g.h.i.j.v.w.x.y.z.A.B.C.D.J J 3+J J J J J J J J J J J J J J J J J J J 4+5+J         ",
"        * * g.h.i.j.v.w.x.y.z.A.B.C.D.J J E.F.G.H.6+7+8+J J J J J J J J 9+0+a+O.P.Q.J J         ",
"        b+* c+d+i.j.v.w.x.y.z.A.B.C.D.J J E.T.U.V.W.X.Y.Z.`. +.+++@+#+$+%+&+*+=+-+Q.J J         ",
"        e+! * * f+,+g+h+i+y.z.A.B.C.D.j+J k+F.U.V.W.X.Y.Z.`. +.+++@+#+$+%+&+*+=+-+l+J J         ",
"          { m+* * * * * * * * * * * * J J J K.n+:+o+p+Y.Z.`. +.+++@+#+$+q+r+N.s+t+J J J         ",
"              % $ m @ + ! * * * * * * J 5+J J J J J J J J J J J J J J J J J J J J J J J         ",
"                                      J J u+v+w+J J J J J J J J J J J J J x+J P y+z+J J         ",
"                                      J J E.T.U.V.A+B+C+D+E+F+G+H+I+J+K+L+r+M+=+-+Q.J J         ",
"                                      J J E.T.U.V.W.X.Y.Z.`. +.+++@+#+$+%+&+*+=+-+Q.J J         ",
"                                      #.J k+F.U.V.W.X.Y.Z.`. +.+++@+#+$+%+&+*+=+-+l+J J         ",
"                                      L J J K.n+:+o+p+Y.Z.`. +.+++@+#+$+q+r+N.s+t+J J N+        ",
"                                        O+P+J J J J J J J J J J J J J J J J J J J |.L           ",
"                                            Q+R+S+T+P+J J J J J J J J J #.U+V+W+$.              ",
"                                                                                                ",
"                                                                                                "};
