/* XPM */
static const char * tb_histogram_parameters_xpm[] = {
"32 32 63 1",
" 	c None",
".	c #000000",
"+	c #000083",
"@	c #000084",
"#	c #000486",
"$	c #001591",
"%	c #000085",
"&	c #0060BF",
"*	c #002EA1",
"=	c #0044AD",
"-	c #0032A3",
";	c #000C8C",
">	c #000286",
",	c #000588",
"'	c #292998",
")	c #A6A6D4",
"!	c #9090C9",
"~	c #0E0E8B",
"{	c #003EAB",
"]	c #000A8A",
"^	c #000688",
"/	c #D1D1E9",
"(	c #FFFFFF",
"_	c #9292CA",
":	c #0046B0",
"<	c #000184",
"[	c #E4E4F2",
"}	c #A3A3D3",
"|	c #0065C5",
"1	c #00118E",
"2	c #000185",
"3	c #5353AC",
"4	c #E2E2F1",
"5	c #D0D0E8",
"6	c #272797",
"7	c #0080D4",
"8	c #000386",
"9	c #007ED2",
"0	c #000788",
"a	c #000A8B",
"b	c #00279D",
"c	c #000188",
"d	c #0018B4",
"e	c #00038B",
"f	c #001FC0",
"g	c #00068F",
"h	c #0011A5",
"i	c #000287",
"j	c #00048B",
"k	c #000186",
"l	c #0029D2",
"m	c #0022C3",
"n	c #002CA9",
"o	c #000B2B",
"p	c #00001F",
"q	c #000032",
"r	c #00455A",
"s	c #004A5F",
"t	c #00195F",
"u	c #00103F",
"v	c #000208",
"w	c #00081F",
"x	c #000001",
"                                ",
"   .                     +      ",
"   .                @@  @@@     ",
"  ...               #@@ @@+     ",
"  ...               $@@@@@ @@%  ",
" .....           &*=-%@@@@@@@%  ",
"  ...            ;@>,@')!~@+%   ",
"   .             {]^@@/((_@%    ",
"   .               :<@[((}@+@@  ",
"   .              |12@3456@%@@@ ",
"   .             7]@8@@@@@@%++  ",
"   .             90ab@@@%@cd    ",
"   .                 +@efe@g    ",
"   .                 @@g hij    ",
"   .                 %kl  m     ",
"   .                            ",
"   .                            ",
"   .                            ",
"   .                            ",
"   .                            ",
"   .                            ",
"   .                            ",
"   .                            ",
"   .                            ",
"   .                            ",
"   .                            ",
"   .                     no     ",
"   ..pqqqqqq  rsssssr  ttu.vw   ",
"  ...........................x. ",
"   .                     ....   ",
"                          .     ",
"                                "};
