/* XPM */
static const char * tb_layout_print_export_xpm[] = {
"32 32 197 2",
"  	c None",
". 	c #00060C",
"+ 	c #00172B",
"@ 	c #001930",
"# 	c #001E3A",
"$ 	c #00192F",
"% 	c #001C36",
"& 	c #000102",
"* 	c #00274A",
"= 	c #0088FF",
"- 	c #005EB6",
"; 	c #071827",
"> 	c #081928",
", 	c #081927",
"' 	c #05111B",
") 	c #0064C1",
"! 	c #00386D",
"~ 	c #000509",
"{ 	c #000000",
"] 	c #002649",
"^ 	c #0086FF",
"/ 	c #004592",
"( 	c #D8D7D7",
"_ 	c #FFFFFF",
": 	c #9F9890",
"< 	c #0062BD",
"[ 	c #0057A7",
"} 	c #00050B",
"| 	c #004694",
"1 	c #D1D2D2",
"2 	c #9A938C",
"3 	c #006FD6",
"4 	c #008AFF",
"5 	c #00070D",
"6 	c #D3D4D4",
"7 	c #9B948D",
"8 	c #004794",
"9 	c #AFADAA",
"0 	c #D8D6D3",
"a 	c #D6D3D0",
"b 	c #D6D4D1",
"c 	c #81776D",
"d 	c #006ED4",
"e 	c #0170D7",
"f 	c #003877",
"g 	c #003673",
"h 	c #003674",
"i 	c #003872",
"j 	c #007EF2",
"k 	c #0089FF",
"l 	c #0085FF",
"m 	c #0087FF",
"n 	c #0084FF",
"o 	c #007DF2",
"p 	c #005DB3",
"q 	c #005FB6",
"r 	c #0060B8",
"s 	c #007BED",
"t 	c #00376B",
"u 	c #030000",
"v 	c #040100",
"w 	c #030100",
"x 	c #040200",
"y 	c #090704",
"z 	c #004584",
"A 	c #007FF6",
"B 	c #0084FE",
"C 	c #00386B",
"D 	c #4B4643",
"E 	c #2C3134",
"F 	c #1D4163",
"G 	c #373C40",
"H 	c #F2F2F2",
"I 	c #4E4E4E",
"J 	c #000008",
"K 	c #000009",
"L 	c #534E4A",
"M 	c #0F1E2D",
"N 	c #008CFF",
"O 	c #1A2C3D",
"P 	c #424242",
"Q 	c #3A3A3A",
"R 	c #ECECEC",
"S 	c #E4E4E4",
"T 	c #F1F1F1",
"U 	c #212121",
"V 	c #004A8F",
"W 	c #404242",
"X 	c #CFFFFF",
"Y 	c #B2FFFF",
"Z 	c #B1F8FF",
"` 	c #B0EFFF",
" .	c #B0F0FF",
"..	c #B0F1FF",
"+.	c #B0CBFF",
"@.	c #B9BAFF",
"#.	c #B4B4DC",
"$.	c #EEEEFF",
"%.	c #252525",
"&.	c #00509A",
"*.	c #00386C",
"=.	c #0E1E2E",
"-.	c #0090FF",
";.	c #192C3E",
">.	c #3C4242",
",.	c #4AFFFF",
"'.	c #03FFFF",
").	c #03E3FF",
"!.	c #03C5FF",
"~.	c #03C6FF",
"{.	c #03D0FF",
"].	c #0356FF",
"^.	c #201FFF",
"/.	c #0B0A86",
"(.	c #A2A1D9",
"_.	c #001931",
":.	c #3F3D3C",
"<.	c #262626",
"[.	c #171411",
"}.	c #313030",
"|.	c #CCCCCC",
"1.	c #313131",
"2.	c #48FFFF",
"3.	c #00FFFF",
"4.	c #00E4FF",
"5.	c #00C4FF",
"6.	c #00CEFF",
"7.	c #002EFF",
"8.	c #0003FF",
"9.	c #1D1EFF",
"0.	c #0E4BFB",
"a.	c #A4BEFF",
"b.	c #010101",
"c.	c #070707",
"d.	c #080807",
"e.	c #050505",
"f.	c #3C4142",
"g.	c #47E7FF",
"h.	c #00D3FF",
"i.	c #00CDFF",
"j.	c #00C6FF",
"k.	c #0024FF",
"l.	c #0000C7",
"m.	c #1D1EA9",
"n.	c #FFFFFE",
"o.	c #0949FF",
"p.	c #A1BDFF",
"q.	c #47DEFF",
"r.	c #00CFFF",
"s.	c #0000B6",
"t.	c #1C1E90",
"u.	c #FFFFFD",
"v.	c #0968FF",
"w.	c #A1CBFF",
"x.	c #47DFFF",
"y.	c #00C8FF",
"z.	c #00D0FF",
"A.	c #0028FF",
"B.	c #0002B7",
"C.	c #1D2191",
"D.	c #FFFCFD",
"E.	c #09CBFF",
"F.	c #A1F8FF",
"G.	c #3C3C42",
"H.	c #463FFF",
"I.	c #0000FE",
"J.	c #0000FF",
"K.	c #1E1FFF",
"L.	c #FFFEFF",
"M.	c #0AC9FF",
"N.	c #A2F6FF",
"O.	c #3B3C40",
"P.	c #4344C2",
"Q.	c #0000A1",
"R.	c #0000E7",
"S.	c #0000C8",
"T.	c #191AAC",
"U.	c #FFFAFE",
"V.	c #07F1FF",
"W.	c #A0FFFF",
"X.	c #3D3E40",
"Y.	c #8082C9",
"Z.	c #4C4EAB",
"`.	c #4C4FE9",
" +	c #4D50FF",
".+	c #4C4ECD",
"++	c #6063B4",
"@+	c #FFFAFD",
"#+	c #55FFFF",
"$+	c #C3FFFF",
"%+	c #464646",
"&+	c #272727",
"*+	c #0A0A0A",
"=+	c #292929",
"-+	c #282828",
";+	c #2A2A2A",
">+	c #060606",
"                                                                ",
"                                                                ",
"                                                                ",
"      . + @ # # # # # # # # # # # $ % &                         ",
"      * = - ; > , , , , , , , , ' ) ! ~ {                       ",
"      ] ^ / ( _ _ _ _ _ _ _ _ _ : < [ } {                       ",
"      ] ^ | 1 _ _ _ _ _ _ _ _ _ 2 3 4 5 {                       ",
"      ] ^ | 1 _ _ _ _ _ _ _ _ _ 2 3 4 5 {                       ",
"      ] ^ | 1 _ _ _ _ _ _ _ _ _ 2 3 4 5 {                       ",
"      ] ^ | 6 _ _ _ _ _ _ _ _ _ 7 3 4 5 {                       ",
"      ] ^ 8 9 0 a a a a a a a b c d 4 5 {                       ",
"      ] ^ e f g h h h h h h h h i j k 5 {                       ",
"      ] ^ l m m m m m m m m m m m n = 5 {                       ",
"      ] ^ n n l l l l l l l l l n n = 5 {                       ",
"      ] ^ n o p q q q q q q q r s n = 5 {                       ",
"      ] ^ k t u v w x y x { { { z A B 5 {                       ",
"      ] ^ k C D E F G H I { { { { J K { { { { { { { { { {       ",
"      ] ^ k C L M N O _ P Q R S S S S S S S S S S S S T U {     ",
"      { V N C L M N O _ P W X Y Y Y Y Z `  ...+.@._ #.$.%.{     ",
"        & &.*.L =.-.;._ P >.,.'.'.'.'.).!.~.{.].^._ /.(.%.{     ",
"          & _.:.<.[.}.|.1.>.2.3.3.3.3.4.5.6.7.8.9._ 0.a.%.{     ",
"            { b.c.d.c.e.{ f.g.h.h.h.h.i.j.6.k.l.m.n.o.p.%.{     ",
"                        { f.q.j.j.j.j.j.j.r.k.s.t.u.v.w.%.{     ",
"                        { f.x.y.y.y.y.y.y.z.A.B.C.D.E.F.%.{     ",
"                        { G.H.I.I.I.J.J.J.J.J.J.K.L.M.N.%.{     ",
"                        { O.P.Q.Q.Q.R.J.J.J.J.S.T.U.V.W.%.{     ",
"                        { X.Y.Z.Z.Z.`. + + + +.+++@+#+$+%.{     ",
"                        { %+_ _ _ _ _ _ _ _ _ _ _ _ _ _ &+{     ",
"                        { *+=+-+-+-+-+-+-+-+-+-+-+-+-+;+>+{     ",
"                          { { { { { { { { { { { { { { { {       ",
"                                                                ",
"                                                                "};
