/* XPM */
static const char * tb_map_north_arrow_xpm[] = {
"16 16 4 1",
" 	c None",
".	c #000000",
"+	c #B5B5B5",
"@	c #FFFFFF",
"       .+       ",
"       .+       ",
"      ..@+      ",
"      ..@+      ",
"     ...@@+     ",
"     ...@@+     ",
"    ....@@@+    ",
"    ....@@@+    ",
"   .....@@@@+   ",
"   .....@@@@+   ",
"  ......@@@@@+  ",
"  ......@@@@@+  ",
"  .....  @@@@+  ",
" ....      @@@+ ",
" ...        @@+ ",
" .           @+ "};
