/* XPM */
static const char * tb_map_synchronize_xpm[] = {
"16 16 8 1",
" 	c None",
".	c #000000",
"+	c #FFFFFF",
"@	c #0000FF",
"#	c #000084",
"$	c #FEFEFF",
"%	c #000005",
"&	c #00FFFF",
"..........      ",
".++++++++.      ",
".+++++@@@#      ",
".++++@#++@#     ",
".++++@#++@#     ",
".++++@#$+@#     ",
".++++@#++@#%..  ",
"....@#@@@@@#+.  ",
"    @&&&&&&#+...",
"    @&&##&&#+.+.",
"    @&&&&&&#+.+.",
"    @#######+.+.",
"    .++++++++.+.",
"    ..........+.",
"      .++++++++.",
"      .........."};
