/* XPM */
static const char *tb_map_pan_active_xpm[] = {
"18 16 4 1",
" 	c None",
".	c #808080",
"+	c #FFFFFF",
"@	c #000000",
"    .             ",
"  ..+..           ",
" .+.+.+.          ",
" .+.+.+.@@@@@@@@@@",
" .+.+.+.+.      @ ",
" .+++++.+.     @  ",
" .+++++++.    @@@@",
" .++++++.    @++@ ",
"@ .++++.    @++@  ",
"@@@....@@@@@++@@@@",
" @+++++++++++@  @ ",
"@+++++++++++@  @  ",
"@@@@@@@@@@@@  @   ",
" @           @    ",
"@           @     ",
"@@@@@@@@@@@@      "
};
