/* XPM */
static const char *tb_map_crosshair_xpm[] = {
/* columns rows colors chars-per-pixel */
"16 16 5 1",
" 	c None",
"+	c #000000",
".	c #FFFFFF",
"#	c #0000FF",
"o	c #00FFFF",
"     +++++++++++",
"     +.....#...+",
"     +....o#o..+",
"     +#########+",
"     +....o#o..+",
"++++++.....#...+",
"+...#+.....#...+",
"+...#+++++++++++",
"+...#........+  ",
"+.oo#oo......+  ",
"+.oo#oo......+  ",
"+############+  ",
"+.oo#oo......+  ",
"+.oo#oo......+  ",
"+...#........+  ",
"++++++++++++++  "};
