/* XPM */
static const char *tb_new_project_xpm[] = {
/* columns rows colors chars-per-pixel */
"16 16 8 1",
". c Black",
"X c #FFFFFF",
"# c #000084",
"o c #00FFFF",
"+ c #007BFF",
"@ c #0000FF",
"  c None",
"O c #00C6FF",
/* pixels */
"                ",
"...........     ",
".XXXXXXXX.X.    ",
".XXXXXXXX.XX.   ",
".XXXXXXXX.XXX.  ",
".XXXXXXXX.XXXX. ",
".XXXXXXXX.XXXXX.",
".XXXXXXXX.......",
".XXXXXXXXXXXXXX.",
".XXXXXXXXXXXXXX.",
".XXXXXXXXXXXXXX.",
".XXXXXXXXXXXXXX.",
".XXXXXXXXXXXXXX.",
"................",
"                ",
"                "
};
