/* XPM */
static const char *tb_open_grid_xpm[] = {
/* columns rows colors chars-per-pixel */
"16 16 7 1",
"O c Black",
"o c #0039FF",
". c #000084",
"@ c #0000C0",
"+ c #848484",
"  c None",
"X c #00C6FF",
/* pixels */
" ...            ",
"..X........     ",
".XXXXXXXXX.     ",
".XXXXXXXXX.     ",
".XXX........... ",
".XXX.ooooooooo. ",
".XXOOOOOOOOOOOOO",
".X.Ooo+oo+oo@  O",
"..oOoo+oo+o.+  O",
"...O@@@@@@@++++O",
"   O  +  +  +  O",
"   O  +  +  +  O",
"   O+++++++++++O",
"   O  +  +  +  O",
"   O  +  +  +  O",
"   OOOOOOOOOOOOO"
};
