/* XPM */
static const char *tb_scatterplot_parameters_xpm[] = {
/* columns rows colors chars-per-pixel */
"16 16 4 1",
". c Black",
"X c #000080",
"o c #0000FF",
"  c None",
/* pixels */
" .              ",
"...             ",
" .        X  o  ",
" .    X     o   ",
" .       X o X  ",
" .        o     ",
" .    X  o  X   ",
" .  X   o       ",
" . X X o X X    ",
" .    o         ",
" .   o          ",
" .X o X X  X    ",
" . o            ",
" .o   X       . ",
" ...............",
"              . "
};
