/* XPM */
static const char *tb_update_xpm[] = {
"16 16 4 1",
" 	c None",
".	c #00007F",
"+	c #8282FF",
"@	c #0000FF",
"         .      ",
"         ..     ",
"    +@......    ",
"   @.........   ",
"  @..+  ......  ",
" +..+  ........ ",
" @.@            ",
" ..+            ",
" ..+       @@@  ",
" ..+       ...  ",
" @.@       @.@  ",
" +..+     +..+  ",
"  @..@+++@..@   ",
"   @.......@    ",
"    +@...@+     ",
"                "};
