/* XPM */
static const char *tb_zoom_in_xpm[] = {
/* columns rows colors chars-per-pixel */
"16 16 3 1",
"X c Black",
". c #FFFFFF",
"  c None",
/* pixels */
"     ....       ",
"   ..XXXX..     ",
"  .XX....XX.    ",
" .X........X.   ",
" .X...XX...X.   ",
".X....XX....X.  ",
".X..XXXXXX..X.  ",
".X..XXXXXX..X.  ",
".X....XX....X.  ",
" .X...XX...X.   ",
" .X........X.   ",
"  .XX....XXX.   ",
"   ..XXXXXXX.   ",
"     .....XXX.  ",
"          .XXX. ",
"           .XX. "
};
