/* XPM */
static const char *tb_zoom_original_xpm[] = {
/* columns rows colors chars-per-pixel */
"16 16 3 1",
"X c Black",
". c #FFFFFF",
"  c None",
/* pixels */
"     ....       ",
"   ..XXXX..     ",
"  .XX....XX.    ",
" .X........X.   ",
" .X...XX...X.   ",
".X...XXX....X.  ",
".X..XXXX....X.  ",
".X....XX....X.  ",
".X....XX....X.  ",
" .X...XX...X.   ",
" .X........X.   ",
"  .XX....XXX.   ",
"   ..XXXXXXX.   ",
"     .....XXX.  ",
"          .XXX. ",
"           .XX. "
};
