/* XPM */
static const char *wksp_shapes_manager_xpm[] = {
/* columns rows colors chars-per-pixel */
"16 16 5 1",
". c Black",
"X c #FFFFFF",
"o c #00FFFF",
"O c #0000FF",
"  c None",
/* pixels */
"                ",
"                ",
"...........     ",
" .XXXXXXXXX.    ",
"  .XXXXXXXXX.   ",
"....XXXXXXXXX.  ",
" .oo.XXXXXXXXX. ",
"  .oo...........",
"....ooooooooo.  ",
" .OO.ooooooooo. ",
"  .OO...........",
"   .OOOOOOOOO.  ",
"    .OOOOOOOOO. ",
"     ...........",
"                ",
"                "
};
