/* XPM */
static const char * wksp_odbc_source_on_xpm[] = {
"46 46 260 2",
"  	c None",
". 	c #E2E6EB",
"+ 	c #C5CDD7",
"@ 	c #92A1B3",
"# 	c #8B9BAE",
"$ 	c #7D8FA5",
"% 	c #516987",
"& 	c #B6C0CC",
"* 	c #D3D9E1",
"= 	c #F0F2F5",
"- 	c #AFBAC7",
"; 	c #17375E",
"> 	c #4A6381",
", 	c #A8B4C2",
"' 	c #E9ECF0",
") 	c #27466A",
"! 	c #395579",
"~ 	c #587292",
"{ 	c #5E7896",
"] 	c #607A98",
"^ 	c #7E95B0",
"/ 	c #8BA1BB",
"( 	c #8EA4BE",
"_ 	c #91A6C1",
": 	c #94A9C4",
"< 	c #97ABC6",
"[ 	c #99AEC7",
"} 	c #9BAFC7",
"| 	c #9EB1C8",
"1 	c #A0B3CA",
"2 	c #758BA6",
"3 	c #768CA6",
"4 	c #788DA7",
"5 	c #556E8D",
"6 	c #3D597A",
"7 	c #435D7C",
"8 	c #99A7B8",
"9 	c #F8F9FA",
"0 	c #CCD3DC",
"a 	c #345072",
"b 	c #345074",
"c 	c #536C8A",
"d 	c #7389A4",
"e 	c #92A5BC",
"f 	c #9AACC3",
"g 	c #9EB0C7",
"h 	c #A2B4CB",
"i 	c #A5B8CE",
"j 	c #A9BCD2",
"k 	c #ADC0D6",
"l 	c #B1C4DA",
"m 	c #B5C8DE",
"n 	c #B9CBE1",
"o 	c #BDCFE5",
"p 	c #C1D2E8",
"q 	c #C4D5E9",
"r 	c #C7D7EA",
"s 	c #CBDAEB",
"t 	c #CEDCED",
"u 	c #D2DFEE",
"v 	c #D5E1EF",
"w 	c #D8E3F0",
"x 	c #DCE5F2",
"y 	c #DFE8F3",
"z 	c #E2EBF4",
"A 	c #B8C5D5",
"B 	c #8D9FB4",
"C 	c #5A728F",
"D 	c #1E3D63",
"E 	c #2D4A6D",
"F 	c #BDC6D1",
"G 	c #244267",
"H 	c #5A728E",
"I 	c #7F92AA",
"J 	c #8A9DB3",
"K 	c #8EA1B7",
"L 	c #92A4BB",
"M 	c #96A8BF",
"N 	c #E6EDF6",
"O 	c #E9F0F7",
"P 	c #ECF2F8",
"Q 	c #F0F5F9",
"R 	c #A7B5C4",
"S 	c #415C7B",
"T 	c #A0ADBD",
"U 	c #3C5779",
"V 	c #7B8EA5",
"W 	c #8295AB",
"X 	c #8699AF",
"Y 	c #F3F7FB",
"Z 	c #F7F9FC",
"` 	c #8999AD",
" .	c #556D89",
"..	c #7E91A7",
"+.	c #C8D0DA",
"@.	c #445F7E",
"#.	c #788CA4",
"$.	c #E5EBF1",
"%.	c #8798AD",
"&.	c #3A5678",
"*.	c #5F7793",
"=.	c #8397AF",
"-.	c #DBE4EE",
";.	c #A3B1C2",
">.	c #627994",
",.	c #1F3F66",
"'.	c #1D3D64",
").	c #264569",
"!.	c #435E80",
"~.	c #597290",
"{.	c #637B99",
"].	c #7F95B0",
"^.	c #8298B2",
"/.	c #859BB5",
"(.	c #CCDAEA",
"_.	c #A6B7CB",
":.	c #A8B8CC",
"<.	c #98A9BE",
"[.	c #7B90A8",
"}.	c #637A97",
"|.	c #375376",
"1.	c #4D6686",
"2.	c #BFC9D5",
"3.	c #214167",
"4.	c #28486E",
"5.	c #2D4C72",
"6.	c #2A496F",
"7.	c #234369",
"8.	c #1A3A60",
"9.	c #496384",
"0.	c #8B9DB3",
"a.	c #D1DAE5",
"b.	c #F1F5FA",
"c.	c #2F4E74",
"d.	c #35547A",
"e.	c #3C5B81",
"f.	c #426287",
"g.	c #436288",
"h.	c #3D5D83",
"i.	c #37567C",
"j.	c #36557C",
"k.	c #2A4A71",
"l.	c #2C4B73",
"m.	c #2D4D74",
"n.	c #1A3A61",
"o.	c #3A577B",
"p.	c #405C80",
"q.	c #415D81",
"r.	c #536E8E",
"s.	c #7188A4",
"t.	c #8A9FB7",
"u.	c #B1C1D4",
"v.	c #DBE5F1",
"w.	c #E1E9F3",
"x.	c #ECF1F8",
"y.	c #49688E",
"z.	c #4F6F94",
"A.	c #56759B",
"B.	c #5D7CA1",
"C.	c #6382A8",
"D.	c #6A89AE",
"E.	c #718FB4",
"F.	c #7896BB",
"G.	c #7E9CC1",
"H.	c #84A3C7",
"I.	c #8BAACE",
"J.	c #92B0D4",
"K.	c #98B5D8",
"L.	c #9DB9DA",
"M.	c #A3BDDC",
"N.	c #A9C1DE",
"O.	c #AEC5E0",
"P.	c #B4C9E3",
"Q.	c #BACDE5",
"R.	c #BFD1E7",
"S.	c #C5D5E9",
"T.	c #CAD9EB",
"U.	c #CFDDED",
"V.	c #1E3E63",
"W.	c #C6CEDA",
"X.	c #1F3F65",
"Y.	c #DEE5EE",
"Z.	c #8496AC",
"`.	c #1D3C63",
" +	c #214067",
".+	c #2E4E73",
"++	c #3E5E83",
"@+	c #CEDAE8",
"#+	c #9BACBF",
"$+	c #5E7693",
"%+	c #1B3B62",
"&+	c #506F96",
"*+	c #55759A",
"=+	c #5B799F",
"-+	c #7593B8",
";+	c #AFC5DF",
">+	c #91A8C4",
",+	c #95ABC5",
"'+	c #899EB9",
")+	c #5C7594",
"!+	c #345174",
"~+	c #395577",
"{+	c #204067",
"]+	c #19395F",
"^+	c #3B5779",
"/+	c #8496AE",
"(+	c #34537A",
"_+	c #25456D",
":+	c #26466E",
"<+	c #28476F",
"[+	c #18385F",
"}+	c #304E73",
"|+	c #355378",
"1+	c #365478",
"2+	c #4A6587",
"3+	c #1B3B61",
"4+	c #E2E7ED",
"5+	c #2F4E73",
"6+	c #ACB9C9",
"7+	c #334F72",
"8+	c #193960",
"9+	c #224269",
"0+	c #304F76",
"a+	c #416186",
"b+	c #A7B6C8",
"c+	c #7287A1",
"d+	c #385476",
"e+	c #18385E",
"f+	c #1E3E65",
"g+	c #234167",
"h+	c #224268",
"i+	c #1D3C64",
"j+	c #17375F",
"k+	c #3F5A7C",
"l+	c #9FAEBF",
"m+	c #335279",
"n+	c #26466D",
"o+	c #1E3E64",
"p+	c #264469",
"q+	c #415D7E",
"r+	c #798EA7",
"s+	c #D9E1ED",
"t+	c #58779D",
"u+	c #4B698F",
"v+	c #4B6A8F",
"w+	c #4E6D92",
"x+	c #517196",
"y+	c #557499",
"z+	c #58769B",
"A+	c #5A789C",
"B+	c #5D7A9D",
"C+	c #607C9E",
"D+	c #637E9F",
"E+	c #879FBD",
"F+	c #AABDD3",
"G+	c #8495AA",
"H+	c #19385F",
"I+	c #607691",
"J+	c #DBE0E6",
"K+	c #677C96",
"                                                                                            ",
"                                                                                            ",
"                                                                                            ",
"                          . + @ # # $ % % % % % % % % % # # # & *                           ",
"                = - $ % ; ; ; ; ; ; ; ; ; ; ; ; ; ; ; ; ; ; ; ; ; ; > $ , '                 ",
"            , > ; ; ; ; ; ) ! ~ { ] ^ / ( _ : < [ } | 1 2 3 4 5 6 ; ; ; ; ; 7 8 9           ",
"        0 a ; ; ; b c d e f g h i j k l m n o p q r s t u v w x y z A B C D ; ; E -         ",
"      F D ; G H I J K L M f g h i j k l m n o p q r s t u v w x y z N O P Q R S ; ; T       ",
"      % ; U V W X J K L M f g h i j k l m n o p q r s t u v w x y z N O P Q Y Z ` ; a       ",
"      ; ;  ...W X J K L M f g h i j k l m n o p q r s t u v w x y z N O P Q Y Z +.; ;       ",
"      ; ; ; @.#.X J K L M f g h i j k l m n o p q r s t u v w x y z N O P Q $.%.D ; ;       ",
"      ; ; ; ; ; &.*.=.L M f g h i j k l m n o p q r s t u v w x y z N -.;.>.D ; ; ; ;       ",
"      ; ; ,.'.; ; ; ; ).!.~.{.].^./.j l m n o p q r s t (._.:.<.[.}.|.; ; ; ; 1.2.; ;       ",
"      ; ; 3.4.5.6.7.8.; ; ; ; ; ; ; ; ; ; ; ; ; ; ; ; ; ; ; ; ; ; ; ; ; 9.0.a.b.Z ; ;       ",
"      ; ; 3.4.c.d.e.f.g.h.i.j.k.l.m.n.; ; ; ; ; ; ; ; ; o.p.q.r.s.t.u.v.w.N x.b.Z ; ;       ",
"      ; ; 3.4.c.d.e.f.y.z.A.B.C.D.E.F.G.H.I.J.K.L.M.N.O.P.Q.R.S.T.U.v v.w.N x.b.Z ; ;       ",
"      ; ; 3.4.c.d.e.f.y.z.A.B.C.D.E.F.G.H.I.J.K.L.M.N.O.P.Q.R.S.T.U.v v.w.N x.b.Z ; ;       ",
"      ; ; 3.4.c.d.e.f.y.z.A.B.C.D.E.F.G.H.I.J.K.L.M.N.O.P.Q.R.S.T.U.v v.w.N x.b.Z ; ;       ",
"      ; ; 3.4.c.d.e.f.y.z.A.B.C.D.E.F.G.H.I.J.K.L.M.N.O.P.Q.R.S.T.U.v v.w.N x.b.Z ; ;       ",
"      ; ; V.4.c.d.e.f.y.z.A.B.C.D.E.F.G.H.I.J.K.L.M.N.O.P.Q.R.S.T.U.v v.w.N x.b.W.; ;       ",
"      ; ; ; X.5.d.e.f.y.z.A.B.C.D.E.F.G.H.I.J.K.L.M.N.O.P.Q.R.S.T.U.v v.w.N Y.Z.`.; ;       ",
"      ; ; ; ; ;  +.+++y.z.A.B.C.D.E.F.G.H.I.J.K.L.M.N.O.P.Q.R.S.T.U.v @+#+$+`.; ; ; ;       ",
"      ; ; ,.%+; ; ; ; '.k.i.++&+*+=+-+G.H.I.J.K.L.M.N.O.;+>+,+'+s.)+!+; ; ; ; ~+2.; ;       ",
"      ; ; 3.4.5.6.{+]+; ; ; ; ; ; ; ; ; ; ; ; ; ; ; ; ; ; ; ; ; ; ; ; ; ^+/+a.b.Z ; ;       ",
"      ; ; 3.4.c.d.e.f.g.h.i.(+_+:+<+[+; ; ; ; ; ; ; ; ; }+|+1+2+s.t.u.v.w.N x.b.Z ; ;       ",
"      ; ; 3.4.c.d.e.f.y.z.A.B.C.D.E.F.G.H.I.J.K.L.M.N.O.P.Q.R.S.T.U.v v.w.N x.b.Z ; ;       ",
"      ; ; 3.4.c.d.e.f.y.z.A.B.C.D.E.F.G.H.I.J.K.L.M.N.O.P.Q.R.S.T.U.v v.w.N x.b.Z ; ;       ",
"      ; ; 3.4.c.d.e.f.y.z.A.B.C.D.E.F.G.H.I.J.K.L.M.N.O.P.Q.R.S.T.U.v v.w.N x.b.Z ; ;       ",
"      3+; X.4.c.d.e.f.y.z.A.B.C.D.E.F.G.H.I.J.K.L.M.N.O.P.Q.R.S.T.U.v v.w.N x.b.4+; ;       ",
"      ; ; [+3.5+d.e.f.y.z.A.B.C.D.E.F.G.H.I.J.K.L.M.N.O.P.Q.R.S.T.U.v v.w.N x.6+7+; ;       ",
"      ; ; ; ; 8+9+0+a+y.z.A.B.C.D.E.F.G.H.I.J.K.L.M.N.O.P.Q.R.S.T.U.v v.b+c+d+; ; ; ;       ",
"      ; ; e+; ; ; ; ; f+k.i.++&+*+=+-+G.H.I.J.K.L.M.N.O.;+>+,+'+s.)+^+; ; ; ; ; g+; ;       ",
"      ; ; 3.h+i+e+j+; ; ; ; ; ; ; ; ; ; ; ; ; ; ; ; ; ; ; ; ; ; ; ; ; ; ; ; k+l+Z ; ;       ",
"      ; ; 3.4.c.d.m+.+n+o+; ; j+j+j+; ; ; ; ; ; ; ; ; ; ; j+j+; ; p+q+r+b+s+x.b.Z ; ;       ",
"      ; ; 3.4.c.d.e.f.y.z.A.t+&+*+=+u+v+w+x+y+z+A+B+C+D+E+>+,+F+T.U.v v.w.N x.b.Z ; ;       ",
"      ; ; 3.4.c.d.e.f.y.z.A.B.C.D.E.F.G.H.I.J.K.L.M.N.O.P.Q.R.S.T.U.v v.w.N x.b.Z ; ;       ",
"      ; ; 3.4.c.d.e.f.y.z.A.B.C.D.E.F.G.H.I.J.K.L.M.N.O.P.Q.R.S.T.U.v v.w.N x.b.Z ; ;       ",
"      ; ; 3.4.c.d.e.f.y.z.A.B.C.D.E.F.G.H.I.J.K.L.M.N.O.P.Q.R.S.T.U.v v.w.N x.b.Z ; ;       ",
"      E ; X.4.c.d.e.f.y.z.A.B.C.D.E.F.G.H.I.J.K.L.M.N.O.P.Q.R.S.T.U.v v.w.N x.b.4+; ;       ",
"      G+; H+3.5+d.e.f.y.z.A.B.C.D.E.F.G.H.I.J.K.L.M.N.O.P.Q.R.S.T.U.v v.w.N x.6+7+; I+      ",
"      = I+; ; 8+9+0+a+y.z.A.B.C.D.E.F.G.H.I.J.K.L.M.N.O.P.Q.R.S.T.U.v v.b+c+d+; ; 7 .       ",
"          - 7 ; ; ; ; f+k.i.++&+*+=+-+G.H.I.J.K.L.M.N.O.;+>+,+'+s.)+^+; ; ; ; a T 9         ",
"              * @ % D ; ; ; ; ; ; ; ; ; ; ; ; ; ; ; ; ; ; ; ; ; ; ; ; ; > $ +               ",
"                      J+& # $ % % % D ; ; ; ; ; ; ; ; ; > % % K+# , 0                       ",
"                                                                                            ",
"                                                                                            "};
