/* XPM */
static const char *wksp_map_graticule_xpm[] = {
/* columns rows colors chars-per-pixel */
"16 16 8 1",
". c Black",
"X c #FFFFFF",
"# c #000084",
"o c #00FFFF",
"+ c #00FFFF",
"@ c #0000FF",
"  c None",
"O c #00C6FF",
/* pixels */
"       ..       ",
"     ......     ",
"   ..+.++.+..   ",
"  .++.++++.++.  ",
" .............. ",
".+++.++++++.+++.",
".++.++++++++.++.",
"................",
".++.++++++++.++.",
".+++.++++++.+++.",
" .............. ",
"  .++.++++.++.  ",
"   ..+.++.+..   ",
"     ......     ",
"       ..       ",
"                "
};
