/* XPM */
static const char * wksp_odbc_sources_xpm[] = {
"48 45 369 2",
"  	c None",
". 	c #E7E7E7",
"+ 	c #D3D3D3",
"@ 	c #BFBFBF",
"# 	c #AFAFAF",
"$ 	c #9F9F9F",
"% 	c #B3B3B3",
"& 	c #C7C7C7",
"* 	c #DFDFDF",
"= 	c #FBFBFB",
"- 	c #DBDBDB",
"; 	c #A7A7A7",
"> 	c #7F7F7F",
", 	c #9B9B9B",
"' 	c #CFCFCF",
") 	c #EFEFEF",
"! 	c #939393",
"~ 	c #898989",
"{ 	c #959595",
"] 	c #A2A2A2",
"^ 	c #B7B7B7",
"/ 	c #BCBCBC",
"( 	c #C0C0C0",
"_ 	c #C6C6C6",
": 	c #C9C9C9",
"< 	c #CBCBCB",
"[ 	c #CDCDCD",
"} 	c #B0B0B0",
"| 	c #9C9C9C",
"1 	c #838383",
"2 	c #8B8B8B",
"3 	c #848484",
"4 	c #979797",
"5 	c #AEAEAE",
"6 	c #BEBEBE",
"7 	c #C4C4C4",
"8 	c #CACACA",
"9 	c #D0D0D0",
"0 	c #D6D6D6",
"a 	c #DDDDDD",
"b 	c #E1E1E1",
"c 	c #E4E4E4",
"d 	c #EAEAEA",
"e 	c #EDEDED",
"f 	c #F0F0F0",
"g 	c #F2F2F2",
"h 	c #F1F1F1",
"i 	c #969696",
"j 	c #8F8F8F",
"k 	c #B1B1B1",
"l 	c #F5F5F5",
"m 	c #C5C5C5",
"n 	c #8D8D8D",
"o 	c #A8A8A8",
"p 	c #B5B5B5",
"q 	c #E3E3E3",
"r 	c #D4D4D4",
"s 	c #B9B9B9",
"t 	c #757575",
"u 	c #7E7E7E",
"v 	c #A9A9A9",
"w 	c #686868",
"x 	c #737373",
"y 	c #868686",
"z 	c #858585",
"A 	c #999999",
"B 	c #E8E8E8",
"C 	c #F8F8F8",
"D 	c #D7D7D7",
"E 	c #BBBBBB",
"F 	c #797979",
"G 	c #7C7C7C",
"H 	c #818181",
"I 	c #A5A5A5",
"J 	c #CECECE",
"K 	c #D8D8D8",
"L 	c #DCDCDC",
"M 	c #E6E6E6",
"N 	c #F3F3F3",
"O 	c #F7F7F7",
"P 	c #8A8A8A",
"Q 	c #A4A4A4",
"R 	c #7E898B",
"S 	c #7F8D91",
"T 	c #80959B",
"U 	c #809FA7",
"V 	c #81A3AD",
"W 	c #81A5AE",
"X 	c #81A7B1",
"Y 	c #82A8B3",
"Z 	c #8AADB7",
"` 	c #93B2BA",
" .	c #9AB7BF",
"..	c #A3BBC2",
"+.	c #9CABAF",
"@.	c #9BA5A8",
"#.	c #939899",
"$.	c #828282",
"%.	c #ECECEC",
"&.	c #C3C3C3",
"*.	c #7E8789",
"=.	c #7D959C",
"-.	c #7CA2AD",
";.	c #7DA6B1",
">.	c #7FA8B3",
",.	c #80ABB6",
"'.	c #80ADB9",
").	c #81AFBC",
"!.	c #82B1BE",
"~.	c #82B4C1",
"{.	c #83B6C4",
"].	c #8EBCC9",
"^.	c #99C3CE",
"/.	c #A3C9D4",
"(.	c #AFCFD8",
"_.	c #B9D6DE",
":.	c #C4DDE3",
"<.	c #CFE3E8",
"[.	c #D9E9ED",
"}.	c #CBD3D5",
"|.	c #A5A8A9",
"1.	c #CCCCCC",
"2.	c #7F8283",
"3.	c #7E9197",
"4.	c #7D9DA7",
"5.	c #CBD8DC",
"6.	c #BBC2C3",
"7.	c #949596",
"8.	c #9D9D9D",
"9.	c #7F8789",
"0.	c #7F8D90",
"a.	c #80969C",
"b.	c #80979E",
"c.	c #81989F",
"d.	c #819AA0",
"e.	c #819BA2",
"f.	c #879EA4",
"g.	c #8CA1A7",
"h.	c #91A4AA",
"i.	c #97A7AC",
"j.	c #96A2A6",
"k.	c #909698",
"l.	c #929292",
"m.	c #406974",
"n.	c #5D747A",
"o.	c #6E7A7E",
"p.	c #858888",
"q.	c #999FA0",
"r.	c #BEC5C7",
"s.	c #235F6F",
"t.	c #246373",
"u.	c #266778",
"v.	c #276B7D",
"w.	c #397181",
"x.	c #457684",
"y.	c #557B85",
"z.	c #567D87",
"A.	c #577F89",
"B.	c #58818C",
"C.	c #58828E",
"D.	c #618792",
"E.	c #6A8D96",
"F.	c #73929B",
"G.	c #7C989F",
"H.	c #86A2AA",
"I.	c #95B4BC",
"J.	c #AECDD5",
"K.	c #A7C1CD",
"L.	c #9DB3C1",
"M.	c #7E93A8",
"N.	c #48596E",
"O.	c #314967",
"P.	c #48607E",
"Q.	c #49617F",
"R.	c #4B6381",
"S.	c #4C6482",
"T.	c #4D6583",
"U.	c #4E6684",
"V.	c #455D7B",
"W.	c #586472",
"X.	c #CCD3DC",
"Y.	c #296E81",
"Z.	c #2A7286",
"`.	c #2B768A",
" +	c #2D7A8E",
".+	c #2E7E93",
"++	c #308298",
"@+	c #31859C",
"#+	c #438FA4",
"$+	c #559AAD",
"%+	c #67A5B6",
"&+	c #79B0BE",
"*+	c #5F899F",
"=+	c #416482",
"-+	c #17375E",
";+	c #4A6381",
">+	c #99A7B8",
",+	c #F0F2F5",
"'+	c #4F6E77",
")+	c #276473",
"!+	c #5D97AB",
"~+	c #2A4E70",
"{+	c #264569",
"]+	c #3C587A",
"^+	c #5B7493",
"/+	c #788FAA",
"(+	c #869CB7",
"_+	c #8BA1BB",
":+	c #91A6C1",
"<+	c #95ABC5",
"[+	c #9AAEC7",
"}+	c #9DB1C8",
"|+	c #A2B4CA",
"1+	c #A6B7CB",
"2+	c #798EA7",
"3+	c #627A97",
"4+	c #455F7F",
"5+	c #2D4A6D",
"6+	c #D3D9E1",
"7+	c #797D7E",
"8+	c #60777C",
"9+	c #53757E",
"0+	c #447381",
"a+	c #3A7585",
"b+	c #305A7A",
"c+	c #214065",
"d+	c #546D8B",
"e+	c #8094AC",
"f+	c #91A4BA",
"g+	c #98AAC1",
"h+	c #9FB1C8",
"i+	c #A5B7CE",
"j+	c #ABBED4",
"k+	c #B2C4DA",
"l+	c #B9CBE1",
"m+	c #BFD1E7",
"n+	c #C5D5E9",
"o+	c #CAD9EB",
"p+	c #D0DDED",
"q+	c #D5E1EF",
"r+	c #DBE5F1",
"s+	c #E0E9F4",
"t+	c #E6EDF6",
"u+	c #E6EBF3",
"v+	c #A6B3C4",
"w+	c #415C7B",
"x+	c #345072",
"y+	c #3A5678",
"z+	c #7A8EA7",
"A+	c #8B9EB4",
"B+	c #ECF1F8",
"C+	c #EAEFF5",
"D+	c #95A4B6",
"E+	c #61757B",
"F+	c #737C7E",
"G+	c #314E71",
"H+	c #546E8C",
"I+	c #637B98",
"J+	c #7D93AE",
"K+	c #A1B3CB",
"L+	c #B6C4D6",
"M+	c #9BACC0",
"N+	c #7F92AA",
"O+	c #546C8A",
"P+	c #1D3D64",
"Q+	c #476180",
"R+	c #28486E",
"S+	c #325177",
"T+	c #34547A",
"U+	c #315177",
"V+	c #304F76",
"W+	c #294870",
"X+	c #193960",
"Y+	c #385578",
"Z+	c #506B8B",
"`+	c #768DA6",
" @	c #A0B0C4",
".@	c #D4DEE8",
"+@	c #F1F6FA",
"@@	c #335278",
"#@	c #3E5D83",
"$@	c #48688D",
"%@	c #537298",
"&@	c #5E7DA3",
"*@	c #6988AD",
"=@	c #7593B8",
"-@	c #7F9EC2",
";@	c #8AA9CD",
">@	c #95B3D7",
",@	c #9EBADA",
"'@	c #A7C1DE",
")@	c #B1C7E1",
"!@	c #BACEE5",
"~@	c #C3D4E8",
"{@	c #CCDBEC",
"]@	c #D5E2EF",
"^@	c #DFE8F3",
"/@	c #E8EFF6",
"(@	c #E2EAF1",
"_@	c #91A2B5",
":@	c #326775",
"<@	c #51737C",
"[@	c #687A7F",
"}@	c #747D7F",
"|@	c #7B7E7F",
"1@	c #203F66",
"2@	c #305075",
"3@	c #3A5A80",
"4@	c #4C6C92",
"5@	c #6786AB",
"6@	c #A2B6CE",
"7@	c #8EA2BB",
"8@	c #506A89",
"9@	c #1B3B62",
"0@	c #355173",
"a@	c #17365D",
"b@	c #2B4B72",
"c@	c #23436A",
"d@	c #18385F",
"e@	c #2A496D",
"f@	c #425E80",
"g@	c #738AA4",
"h@	c #5C7379",
"i@	c #2D6674",
"j@	c #6B7A7D",
"k@	c #4C7580",
"l@	c #3F7584",
"m@	c #2E768A",
"n@	c #19395F",
"o@	c #204066",
"p@	c #ACBAC9",
"q@	c #ABABAB",
"r@	c #24446B",
"s@	c #405F85",
"t@	c #506F96",
"u@	c #B3C5DB",
"v@	c #9FB2C9",
"w@	c #5C7492",
"x@	c #2B486C",
"y@	c #224268",
"z@	c #204067",
"A@	c #1C3C62",
"B@	c #17375F",
"C@	c #224166",
"D@	c #4C6685",
"E@	c #9FAEBF",
"F@	c #47678D",
"G@	c #48678D",
"H@	c #406085",
"I@	c #46658B",
"J@	c #4B6B90",
"K@	c #517095",
"L@	c #56759A",
"M@	c #5B799C",
"N@	c #5F7C9E",
"O@	c #647F9F",
"P@	c #6983A1",
"Q@	c #7C94AF",
"R@	c #CFDDEB",
"S@	c #7689A0",
"T@	c #BDC6D1",
"U@	c #435D7C",
"V@	c #E2E6EB",
"W@	c #B6C0CC",
"X@	c #8B9BAE",
"Y@	c #607691",
"Z@	c #516987",
"`@	c #8495AA",
" #	c #A0ADBD",
"                                                                                                ",
"                                                                                                ",
"                                                                                                ",
"                                      . + @ # $ $ $ $ $ $ $ % & * =                             ",
"                                - ; > > > > > > > > > > > > > > > > , '                         ",
"                            ) ! > > > ~ { ] ^ / ( _ : < [ ' ( } | 1 > > 2 .                     ",
"                            ; > 3 4 5 ^ 6 7 8 9 0 a b c . d e f g h < i > j                     ",
"                            > > j ; k ^ 6 7 8 9 0 a b c . d e f g l f m > >                     ",
"                            > > > > n , o p 8 9 0 a b c . d q r s o 1 > > >                     ",
"                            > > t u > > > > > > > > > > > > > > > > > v > >                     ",
"                            > > w x u 3 y z > > > > > > > > 2 A p : B C > >                     ",
"                  q D @ E $ > > F G > H 3 n 4 I E & J + K L b M d ) N C > >                     ",
"          O < 4 > > > > > > > > > > > > > > > > > P Q : K L b M d ) N C > >                     ",
"        . 2 > > > R S T U V W X Y Z `  ...+.@.#.$.> > $.^ L b M d ) %.&.> >                     ",
"        4 > *.=.-.;.>.,.'.).!.~.{.].^./.(._.:.<.[.}.|.> $.L K 1.p I $.> > >                     ",
"        > > 2.3.4.;.>.,.'.).!.~.{.].^./.(._.:.<.5.6.7.> > > > > > > > 8.> >                     ",
"        > > > > > > 9.0.a.b.c.d.e.f.g.h.i.j.k.> > > > > > > z l.k : B C > >                     ",
"        > > m.n.o.> > > > > > > > > > > > > > > p.q.r.> > L b M d ) N C > >                     ",
"        > > s.t.u.v.w.x.y.z.A.B.C.D.E.F.G.H.I.J.K.L.M.N.O.P.Q.R.S.T.U.V.N.W.X.                  ",
"        > > s.t.u.v.Y.Z.`. +.+++@+#+$+%+&+*+=+-+-+-+-+-+-+-+-+-+-+-+-+-+-+-+-+-+;+>+,+          ",
"        H > '+)+u.v.Y.Z.`. +.+++@+#+$+!+~+-+-+-+{+]+^+/+(+_+:+<+[+}+|+1+2+3+4+-+-+-+5+6+        ",
"        > > > 7+8+9+0+a+`. +.+++@+#+$+b+-+c+d+e+f+g+h+i+j+k+l+m+n+o+p+q+r+s+t+u+v+w+-+x+        ",
"        > > > > > > > > > > > > > > > -+-+y+z+A+f+g+h+i+j+k+l+m+n+o+p+q+r+s+t+B+C+D+-+-+        ",
"        > > m.E+F+> > > > > > > > > > -+-+-+-+G+H+I+J+K+j+k+l+m+n+o+p+q+L+M+N+O+-+-+-+-+        ",
"        > > s.t.u.v.w.x.y.z.A.B.C.D.E.-+-+P+-+-+-+-+-+-+-+-+-+-+-+-+-+-+-+-+-+-+-+Q+-+-+        ",
"        > > s.t.u.v.Y.Z.`. +.+++@+#+$+-+-+R+S+T+U+V+W+X+-+-+-+-+-+-+-+-+Y+Z+`+ @.@+@-+-+        ",
"        > > '+)+u.v.Y.Z.`. +.+++@+#+$+-+-+R+@@#@$@%@&@*@=@-@;@>@,@'@)@!@~@{@]@^@/@+@-+-+        ",
"        > > > 7+8+9+0+a+`. +.+++@+#+$+-+-+R+@@#@$@%@&@*@=@-@;@>@,@'@)@!@~@{@]@^@/@+@-+-+        ",
"        > > 7+> > > > > > > > > > > > -+-+P+V+#@$@%@&@*@=@-@;@>@,@'@)@!@~@{@]@^@(@_@-+-+        ",
"        > > s.:@<@[@}@|@> > > > > > > -+-+-+-+1@2@3@4@5@=@-@;@>@,@'@)@!@6@7@`+8@-+-+-+-+        ",
"        > > s.t.u.v.Y.Z.`. +.+++@+#+$+-+-+9@-+-+-+-+-+-+-+-+-+-+-+-+-+-+-+-+-+-+-+0@a@-+        ",
"        > > s.t.u.v.Y.Z.`. +.+++@+#+$+-+-+R+S+T+U+b@c@d@-+-+-+-+-+-+-+-+e@f@g@ @.@+@-+-+        ",
"        4 > h@i@u.v.Y.Z.`. +.+++@+#+$+-+-+R+@@#@$@%@&@*@=@-@;@>@,@'@)@!@~@{@]@^@/@+@-+-+        ",
"        D 1 > > j@9+k@l@m@ +.+++@+#+$+n@-+o@S+#@$@%@&@*@=@-@;@>@,@'@)@!@~@{@]@^@/@p@-+-+        ",
"          . q@> > > > > > > > > > > > -+-+-+X+r@2@s@t@*@=@-@;@>@,@'@)@!@u@v@`+w@x@-+-+-+        ",
"              = * &.% $ 1 > > > > > > -+a@-+-+-+-+-+-+-+-+-+-+-+-+-+-+-+-+-+-+-+-+-+-+-+        ",
"                                      -+-+y@z@A@-+-+-+-+-+-+-+-+-+-+-+-+-+B@-+C@D@E@-+-+        ",
"                                      -+-+R+@@#@$@F@G@H@I@J@K@L@M@N@O@P@Q@v@R@^@/@+@-+-+        ",
"                                      -+-+R+@@#@$@%@&@*@=@-@;@>@,@'@)@!@~@{@]@^@/@+@-+-+        ",
"                                      5+-+o@S+#@$@%@&@*@=@-@;@>@,@'@)@!@~@{@]@^@/@p@-+-+        ",
"                                      >+-+-+X+r@2@s@t@*@=@-@;@>@,@'@)@!@u@v@`+w@x@-+-+S@        ",
"                                        T@U@-+-+-+-+-+-+-+-+-+-+-+-+-+-+-+-+-+-+-+x+>+          ",
"                                            V@W@X@Y@U@-+-+-+-+-+-+-+-+-+5+Z@`@ #6+              ",
"                                                                                                ",
"                                                                                                "};
