/* XPM */
static const char * wksp_shapes_pointcloud_xpm[] = {
"32 32 4 1",
" 	c None",
".	c #000085",
"+	c #000084",
"@	c #000083",
"                                ",
"                                ",
"                                ",
"     .      ++++                ",
"   .++++   @++++                ",
"   +++++@  +++++    ++++        ",
"   ++++++   +++.   ++++++       ",
"   +++++@          ++++++       ",
"   +++++           ++++++       ",
"     +             @++++        ",
"                     .+         ",
"            ++            ++@   ",
"           +++@           +++   ",
"           ++++           +++   ",
"            @+    ++            ",
"   ++++          ++++           ",
"   ++++          ++++           ",
"   ++++           ..            ",
"   ++++                  .+     ",
"                        +++++   ",
"                +.     ++++++   ",
"               ++++    ++++++   ",
"              +++++     +++++   ",
"        +.    +++++     +++++   ",
"       ++++@   +++              ",
"      ++++++         +.         ",
"      ++++++        ++++        ",
"      ++++++        +++@        ",
"       ++++          ++         ",
"                                ",
"                                ",
"                                "};
