/* XPM */
static const char * wksp_odbc_source_off_xpm[] = {
"46 46 123 2",
"  	c None",
". 	c #EFEFEF",
"+ 	c #DFDFDF",
"@ 	c #C3C3C3",
"# 	c #BFBFBF",
"$ 	c #B7B7B7",
"% 	c #9F9F9F",
"& 	c #D7D7D7",
"* 	c #E7E7E7",
"= 	c #F7F7F7",
"- 	c #D3D3D3",
"; 	c #7F7F7F",
"> 	c #9B9B9B",
", 	c #CFCFCF",
"' 	c #F3F3F3",
") 	c #878787",
"! 	c #8F8F8F",
"~ 	c #A0A0A0",
"{ 	c #A4A4A4",
"] 	c #A6A6A6",
"^ 	c #BEBEBE",
"/ 	c #C1C1C1",
"( 	c #C6C6C6",
"_ 	c #C9C9C9",
": 	c #CACACA",
"< 	c #CBCBCB",
"[ 	c #CCCCCC",
"} 	c #CECECE",
"| 	c #B4B4B4",
"1 	c #B5B5B5",
"2 	c #B6B6B6",
"3 	c #A2A2A2",
"4 	c #949494",
"5 	c #979797",
"6 	c #C7C7C7",
"7 	c #FBFBFB",
"8 	c #E3E3E3",
"9 	c #8B8B8B",
"0 	c #999999",
"a 	c #A8A8A8",
"b 	c #B8B8B8",
"c 	c #C5C5C5",
"d 	c #C8C8C8",
"e 	c #D0D0D0",
"f 	c #DADADA",
"g 	c #DEDEDE",
"h 	c #E1E1E1",
"i 	c #E4E4E4",
"j 	c #E6E6E6",
"k 	c #E8E8E8",
"l 	c #E9E9E9",
"m 	c #EBEBEB",
"n 	c #EDEDED",
"o 	c #EEEEEE",
"p 	c #F0F0F0",
"q 	c #F1F1F1",
"r 	c #838383",
"s 	c #DBDBDB",
"t 	c #848484",
"u 	c #AFAFAF",
"v 	c #B3B3B3",
"w 	c #BABABA",
"x 	c #F4F4F4",
"y 	c #F6F6F6",
"z 	c #969696",
"A 	c #8C8C8C",
"B 	c #A3A3A3",
"C 	c #ABABAB",
"D 	c #F9F9F9",
"E 	c #BDBDBD",
"F 	c #8D8D8D",
"G 	c #9D9D9D",
"H 	c #AEAEAE",
"I 	c #CDCDCD",
"J 	c #686868",
"K 	c #787878",
"L 	c #868686",
"M 	c #939393",
"N 	c #B9B9B9",
"O 	c #D2D2D2",
"P 	c #AAAAAA",
"Q 	c #919191",
"R 	c #DCDCDC",
"S 	c #626262",
"T 	c #707070",
"U 	c #7D7D7D",
"V 	c #C0C0C0",
"W 	c #6E6E6E",
"X 	c #747474",
"Y 	c #7A7A7A",
"Z 	c #808080",
"` 	c #858585",
" .	c #898989",
"..	c #8A8A8A",
"+.	c #888888",
"@.	c #818181",
"#.	c #A1A1A1",
"$.	c #A5A5A5",
"%.	c #B1B1B1",
"&.	c #D5D5D5",
"*.	c #D8D8D8",
"=.	c #DDDDDD",
"-.	c #E0E0E0",
";.	c #6D6D6D",
">.	c #757575",
",.	c #BCBCBC",
"'.	c #7B7B7B",
").	c #7C7C7C",
"!.	c #A7A7A7",
"~.	c #8E8E8E",
"{.	c #9C9C9C",
"].	c #909090",
"^.	c #929292",
"/.	c #7E7E7E",
"(.	c #727272",
"_.	c #6F6F6F",
":.	c #B2B2B2",
"<.	c #ECECEC",
"[.	c #9A9A9A",
"}.	c #9E9E9E",
"|.	c #A9A9A9",
"1.	c #ACACAC",
"2.	c #BBBBBB",
"                                                                                            ",
"                                                                                            ",
"                                                                                            ",
"                          . + @ # # $ % % % % % % % % % # # # & *                           ",
"                = - $ % ; ; ; ; ; ; ; ; ; ; ; ; ; ; ; ; ; ; ; ; ; ; > $ , '                 ",
"            , > ; ; ; ; ; ) ! ~ { ] $ ^ / @ ( _ : < [ } | 1 2 3 4 ; ; ; ; ; 5 6 7           ",
"        8 ! ; ; ; 9 0 a b ^ / c d [ e - & f g h 8 i j k l m n o p q f / { r ; ; 9 -         ",
"      s r ; t 0 a u v 2 w ^ / c d [ e - & f g h 8 i j k l m n o p q ' x y = , z ; ; <       ",
"      % ; A B a C u v 2 w ^ / c d [ e - & f g h 8 i j k l m n o p q ' x y = D 7 ^ ; !       ",
"      ; ; 4 { a C u v 2 w ^ / c d [ e - & f g h 8 i j k l m n o p q ' x y = D 7 h ; ;       ",
"      ; ; ; ! { C u v 2 w ^ / c d [ e - & f g h 8 i j k l m n o p q ' x y = q E r ; ;       ",
"      ; ; ; ; ; F G H 2 w ^ / c d [ e - & f g h 8 i j k l m n o p q ' n I a r ; ; ; ;       ",
"      ; ; J K ; ; ; ; L M % { | 2 N I - & f g h 8 i j k j e O d b P Q ; ; ; ; G R ; ;       ",
"      ; ; S J T K U ; ; ; ; ; ; ; ; ; ; ; ; ; ; ; ; ; ; ; ; ; ; ; ; ; ; > V * D 7 ; ;       ",
"      ; ; S J W X Y Z `  . ...) +...@.; ; ; ; ; ; ; ; ; M z 5 #.v / & o p ' y D 7 ; ;       ",
"      ; ; S J W X Y Z L F M 0 % $.C %.$ E @ _ I e O &.*.s =.-.8 j l m o p ' y D 7 ; ;       ",
"      ; ; S J W X Y Z L F M 0 % $.C %.$ E @ _ I e O &.*.s =.-.8 j l m o p ' y D 7 ; ;       ",
"      ; ; S J W X Y Z L F M 0 % $.C %.$ E @ _ I e O &.*.s =.-.8 j l m o p ' y D 7 ; ;       ",
"      ; ; S J W X Y Z L F M 0 % $.C %.$ E @ _ I e O &.*.s =.-.8 j l m o p ' y D 7 ; ;       ",
"      ; ; ;.J W X Y Z L F M 0 % $.C %.$ E @ _ I e O &.*.s =.-.8 j l m o p ' y D -.; ;       ",
"      ; ; ; >.T X Y Z L F M 0 % $.C %.$ E @ _ I e O &.*.s =.-.8 j l m o p ' . ,.r ; ;       ",
"      ; ; ; ; ; '.).Z L F M 0 % $.C %.$ E @ _ I e O &.*.s =.-.8 j l m * _ !.r ; ; ; ;       ",
"      ; ; J Y ; ; ; ; Z t  .~.5 {.~ u $ E @ _ I e O &.*.*.( d / v !.].; ; ; ; ^.R ; ;       ",
"      ; ; S J T K /.; ; ; ; ; ; ; ; ; ; ; ; ; ; ; ; ; ; ; ; ; ; ; ; ; ; M ,.* D 7 ; ;       ",
"      ; ; S J W X Y Z `  . . .` L ) Z ; ; ; ; ; ; ; ; ; F Q Q {.v / & o p ' y D 7 ; ;       ",
"      ; ; S J W X Y Z L F M 0 % $.C %.$ E @ _ I e O &.*.s =.-.8 j l m o p ' y D 7 ; ;       ",
"      ; ; S J W X Y Z L F M 0 % $.C %.$ E @ _ I e O &.*.s =.-.8 j l m o p ' y D 7 ; ;       ",
"      ; ; S J W X Y Z L F M 0 % $.C %.$ E @ _ I e O &.*.s =.-.8 j l m o p ' y D 7 ; ;       ",
"      @.; J J W X Y Z L F M 0 % $.C %.$ E @ _ I e O &.*.s =.-.8 j l m o p ' y D . ; ;       ",
"      ; ; U (._.X Y Z L F M 0 % $.C %.$ E @ _ I e O &.*.s =.-.8 j l m o p ' y - ~.; ;       ",
"      ; ; ; ; U '.).Z L F M 0 % $.C %.$ E @ _ I e O &.*.s =.-.8 j l m o e :.^.; ; ; ;       ",
"      ; ; ).; ; ; ; ; Z t  .~.5 {.~ u $ E @ _ I e O &.*.*.( d / v !.M ; ; ; ; ; L ; ;       ",
"      ; ; S _.'.; ; ; ; ; ; ; ; ; ; ; ; ; ; ; ; ; ; ; ; ; ; ; ; ; ; ; ; ; ; z < 7 ; ;       ",
"      ; ; S J W X '.Z @.@.; ; ; ; ; ; ; ; ; ; ; ; ; ; ; ; ; ; ; ; ) 5 $ e <.y D 7 ; ;       ",
"      ; ; S J W X Y Z L F M 5 5 {.~ [.> }.#.{ ] a |.P 1./ ( d - j l m o p ' y D 7 ; ;       ",
"      ; ; S J W X Y Z L F M 0 % $.C %.$ E @ _ I e O &.*.s =.-.8 j l m o p ' y D 7 ; ;       ",
"      ; ; S J W X Y Z L F M 0 % $.C %.$ E @ _ I e O &.*.s =.-.8 j l m o p ' y D 7 ; ;       ",
"      ; ; S J W X Y Z L F M 0 % $.C %.$ E @ _ I e O &.*.s =.-.8 j l m o p ' y D 7 ; ;       ",
"      9 ; J J W X Y Z L F M 0 % $.C %.$ E @ _ I e O &.*.s =.-.8 j l m o p ' y D . ; ;       ",
"      2.; U (._.X Y Z L F M 0 % $.C %.$ E @ _ I e O &.*.s =.-.8 j l m o p ' y - ~.; !.      ",
"      = !.; ; U '.).Z L F M 0 % $.C %.$ E @ _ I e O &.*.s =.-.8 j l m o e :.^.; ; 5 .       ",
"          - 5 ; ; ; ; Z t  .~.5 {.~ u $ E @ _ I e O &.*.*.( d / v !.M ; ; ; ; ! < 7         ",
"              * @ % r ; ; ; ; ; ; ; ; ; ; ; ; ; ; ; ; ; ; ; ; ; ; ; ; ; > $ +               ",
"                      m & # $ % % % r ; ; ; ; ; ; ; ; ; > % % C # , 8                       ",
"                                                                                            ",
"                                                                                            "};
