/* XPM */
static const char *wnd_diagram_xpm[] = {
/* columns rows colors chars-per-pixel */
"16 16 5 1",
". c Black",
"o c #000084",
"O c #00FFFF",
"X c #0000FF",
"  c None",
/* pixels */
" .              ",
"...             ",
" .  X           ",
" .  X     o     ",
" .  X    oo  X  ",
" .  Xo   oOo X  ",
" . oXOoooOOo X  ",
" . oXOOOoOOOoX  ",
" .oOXOOOOOXOoX  ",
" .oOXOOOOOXOOX  ",
" .OOXOOXOOXOOX  ",
" .OOXOOXOOXOOX  ",
" .OOXOOXOOXOOX  ",
" .OOXOOXOOXOOX. ",
" ...............",
"              . "
};
